<mxfile modified="2022-05-02T01:34:59.384Z" host="app.diagrams.net" agent="5.0 (Windows NT 10.0; Win64; x64) AppleWebKit/537.36 (KHTML, like Gecko) Chrome/100.0.4896.127 Safari/537.36 Edg/100.0.1185.50" etag="mgncZF-F_iggAGC1Izji" compressed="false" version="17.5.0" type="google" pages="8">
  <diagram id="3X4lFlyYeqB2TQG3JWgW" name="System Context/Stakeholders Influence/Interest Map">
    <mxGraphModel grid="1" page="1" gridSize="10" guides="1" tooltips="1" connect="1" arrows="1" fold="1" pageScale="1" pageWidth="827" pageHeight="1169" math="0" shadow="0">
      <root>
        <mxCell id="u-42Sj3VqcFQKL4iuGMg-0" />
        <mxCell id="ezlwX3yFezyIdX5X7NAo-78" value="Diagram" style="" parent="u-42Sj3VqcFQKL4iuGMg-0" />
        <mxCell id="MzK3O0VDZVXaQ5iThKSW-49" style="edgeStyle=orthogonalEdgeStyle;rounded=0;orthogonalLoop=1;jettySize=auto;html=1;exitX=0.5;exitY=1;exitDx=0;exitDy=0;entryX=0.5;entryY=0.492;entryDx=0;entryDy=0;entryPerimeter=0;strokeColor=#B3B3B3;fontSize=10;fontColor=#000000;" edge="1" parent="ezlwX3yFezyIdX5X7NAo-78" source="MzK3O0VDZVXaQ5iThKSW-85" target="MzK3O0VDZVXaQ5iThKSW-85">
          <mxGeometry relative="1" as="geometry" />
        </mxCell>
        <mxCell id="MzK3O0VDZVXaQ5iThKSW-99" value="&lt;b&gt;Internal&lt;/b&gt;" style="rounded=1;align=center;fillColor=#F1F2F4;strokeColor=none;html=1;fontColor=#596780;fontSize=12;shadow=0;labelBackgroundColor=none;" vertex="1" parent="ezlwX3yFezyIdX5X7NAo-78">
          <mxGeometry x="150" y="180" width="250" height="20" as="geometry" />
        </mxCell>
        <mxCell id="7zIgz8O9k668niWYiNMN-0" value="&lt;font style=&quot;font-size: 10px&quot;&gt;Family&lt;br style=&quot;font-size: 10px&quot;&gt;&lt;/font&gt;" style="shape=image;html=1;verticalAlign=top;verticalLabelPosition=bottom;labelBackgroundColor=none;imageAspect=0;aspect=fixed;image=https://cdn0.iconfinder.com/data/icons/elasto-online-store/26/00-ELASTOFONT-STORE-READY_user-128.png;shadow=0;strokeColor=#CC6600;strokeWidth=2;fillColor=none;fontSize=10;fontColor=#000000;align=center;" vertex="1" parent="ezlwX3yFezyIdX5X7NAo-78">
          <mxGeometry x="480" y="280" width="24" height="24" as="geometry" />
        </mxCell>
        <mxCell id="ezlwX3yFezyIdX5X7NAo-4" value="&lt;i&gt;&lt;font color=&quot;#000000&quot;&gt;&quot;Monitor&quot;&lt;/font&gt;&lt;/i&gt;" style="whiteSpace=wrap;html=1;aspect=fixed;shadow=0;labelBackgroundColor=none;strokeColor=#666666;strokeWidth=2;fillColor=#f5f5f5;fontSize=9;fontColor=#333333;align=center;verticalAlign=top;" vertex="1" parent="ezlwX3yFezyIdX5X7NAo-78">
          <mxGeometry x="150" y="380" width="120" height="120" as="geometry" />
        </mxCell>
        <mxCell id="ezlwX3yFezyIdX5X7NAo-5" value="&lt;i&gt;&quot;Keep Informed&quot;&lt;/i&gt;" style="whiteSpace=wrap;html=1;aspect=fixed;shadow=0;labelBackgroundColor=none;strokeColor=#666666;strokeWidth=2;fillColor=#f5f5f5;fontSize=9;fontColor=#333333;align=center;verticalAlign=top;" vertex="1" parent="ezlwX3yFezyIdX5X7NAo-78">
          <mxGeometry x="280" y="380" width="121" height="121" as="geometry" />
        </mxCell>
        <mxCell id="ezlwX3yFezyIdX5X7NAo-6" value="&lt;i&gt;&quot;Manage Closely&quot;&lt;/i&gt;" style="whiteSpace=wrap;html=1;aspect=fixed;shadow=0;labelBackgroundColor=none;strokeColor=#666666;strokeWidth=2;fillColor=#f5f5f5;fontSize=9;fontColor=#333333;align=center;verticalAlign=top;" vertex="1" parent="ezlwX3yFezyIdX5X7NAo-78">
          <mxGeometry x="280" y="240" width="120" height="120" as="geometry" />
        </mxCell>
        <mxCell id="ezlwX3yFezyIdX5X7NAo-7" value="&quot;&lt;i&gt;Keep Satisfied&lt;/i&gt;&quot;" style="whiteSpace=wrap;html=1;aspect=fixed;shadow=0;labelBackgroundColor=none;strokeColor=#666666;strokeWidth=2;fillColor=#f5f5f5;fontSize=9;fontColor=#333333;align=center;verticalAlign=top;" vertex="1" parent="ezlwX3yFezyIdX5X7NAo-78">
          <mxGeometry x="150" y="240" width="120" height="120" as="geometry" />
        </mxCell>
        <mxCell id="ezlwX3yFezyIdX5X7NAo-18" value="&lt;b style=&quot;font-size: 12px;&quot;&gt;&lt;font style=&quot;font-size: 12px;&quot; color=&quot;#000000&quot;&gt;INFLUENCE&lt;/font&gt;&lt;/b&gt;" style="html=1;shadow=0;dashed=0;align=center;verticalAlign=middle;shape=mxgraph.arrows2.arrow;dy=0.48;dx=20;notch=0;labelBackgroundColor=none;strokeColor=#666666;strokeWidth=2;fillColor=none;fontSize=12;fontColor=#00994D;" vertex="1" parent="ezlwX3yFezyIdX5X7NAo-78">
          <mxGeometry x="150" y="510" width="280" height="30" as="geometry" />
        </mxCell>
        <mxCell id="ezlwX3yFezyIdX5X7NAo-19" value="&lt;font style=&quot;font-size: 12px;&quot; color=&quot;#000000&quot;&gt;&lt;b style=&quot;font-size: 12px;&quot;&gt;INTEREST&lt;/b&gt;&lt;/font&gt;" style="html=1;shadow=0;dashed=0;align=center;verticalAlign=middle;shape=mxgraph.arrows2.arrow;dy=0.48;dx=20;notch=0;labelBackgroundColor=none;strokeColor=#666666;strokeWidth=2;fillColor=none;fontSize=12;fontColor=#00994D;rotation=-90;" vertex="1" parent="ezlwX3yFezyIdX5X7NAo-78">
          <mxGeometry x="1.5" y="356.5" width="262" height="25" as="geometry" />
        </mxCell>
        <mxCell id="ezlwX3yFezyIdX5X7NAo-23" value="&lt;font style=&quot;font-size: 10px;&quot;&gt;Executive&lt;br style=&quot;font-size: 10px;&quot;&gt;Sponsor&lt;br style=&quot;font-size: 10px;&quot;&gt;&lt;/font&gt;" style="shape=image;html=1;verticalAlign=top;verticalLabelPosition=bottom;labelBackgroundColor=none;imageAspect=0;aspect=fixed;image=https://cdn0.iconfinder.com/data/icons/elasto-online-store/26/00-ELASTOFONT-STORE-READY_user-128.png;shadow=0;strokeColor=#CC6600;strokeWidth=2;fillColor=none;fontSize=10;fontColor=#000000;align=center;" vertex="1" parent="ezlwX3yFezyIdX5X7NAo-78">
          <mxGeometry x="375" y="300" width="20" height="20" as="geometry" />
        </mxCell>
        <mxCell id="ezlwX3yFezyIdX5X7NAo-25" value="&lt;font style=&quot;font-size: 10px&quot;&gt;Customer&lt;br style=&quot;font-size: 10px&quot;&gt;Support&lt;br style=&quot;font-size: 10px&quot;&gt;&lt;/font&gt;" style="shape=image;html=1;verticalAlign=top;verticalLabelPosition=bottom;labelBackgroundColor=none;imageAspect=0;aspect=fixed;image=https://cdn0.iconfinder.com/data/icons/elasto-online-store/26/00-ELASTOFONT-STORE-READY_user-128.png;shadow=0;strokeColor=#CC6600;strokeWidth=2;fillColor=none;fontSize=10;fontColor=#000000;align=center;" vertex="1" parent="ezlwX3yFezyIdX5X7NAo-78">
          <mxGeometry x="331.5" y="440" width="20" height="20" as="geometry" />
        </mxCell>
        <mxCell id="ezlwX3yFezyIdX5X7NAo-29" value="&lt;font style=&quot;font-size: 10px&quot;&gt;HR&lt;br style=&quot;font-size: 10px&quot;&gt;&lt;/font&gt;" style="shape=image;html=1;verticalAlign=top;verticalLabelPosition=bottom;labelBackgroundColor=none;imageAspect=0;aspect=fixed;image=https://cdn0.iconfinder.com/data/icons/elasto-online-store/26/00-ELASTOFONT-STORE-READY_user-128.png;shadow=0;strokeColor=#CC6600;strokeWidth=2;fillColor=none;fontSize=10;fontColor=#000000;align=center;" vertex="1" parent="ezlwX3yFezyIdX5X7NAo-78">
          <mxGeometry x="225" y="400" width="20" height="20" as="geometry" />
        </mxCell>
        <mxCell id="ezlwX3yFezyIdX5X7NAo-31" value="&lt;font style=&quot;font-size: 10px&quot;&gt;Training&lt;br&gt;Support&lt;br style=&quot;font-size: 10px&quot;&gt;&lt;/font&gt;" style="shape=image;html=1;verticalAlign=top;verticalLabelPosition=bottom;labelBackgroundColor=none;imageAspect=0;aspect=fixed;image=https://cdn0.iconfinder.com/data/icons/elasto-online-store/26/00-ELASTOFONT-STORE-READY_user-128.png;shadow=0;strokeColor=#CC6600;strokeWidth=2;fillColor=none;fontSize=10;fontColor=#000000;align=center;" vertex="1" parent="ezlwX3yFezyIdX5X7NAo-78">
          <mxGeometry x="290" y="440" width="20" height="20" as="geometry" />
        </mxCell>
        <mxCell id="ezlwX3yFezyIdX5X7NAo-37" value="&lt;font style=&quot;font-size: 10px&quot;&gt;Project&lt;br&gt;Sponsor&lt;br style=&quot;font-size: 10px&quot;&gt;&lt;/font&gt;" style="shape=image;html=1;verticalAlign=top;verticalLabelPosition=bottom;labelBackgroundColor=none;imageAspect=0;aspect=fixed;image=https://cdn0.iconfinder.com/data/icons/elasto-online-store/26/00-ELASTOFONT-STORE-READY_user-128.png;shadow=0;strokeColor=#CC6600;strokeWidth=2;fillColor=none;fontSize=10;fontColor=#000000;align=center;" vertex="1" parent="ezlwX3yFezyIdX5X7NAo-78">
          <mxGeometry x="345" y="280" width="20" height="20" as="geometry" />
        </mxCell>
        <mxCell id="ezlwX3yFezyIdX5X7NAo-39" value="&lt;font style=&quot;font-size: 10px&quot;&gt;Program&lt;br&gt;Manager&lt;br style=&quot;font-size: 10px&quot;&gt;&lt;/font&gt;" style="shape=image;html=1;verticalAlign=top;verticalLabelPosition=bottom;labelBackgroundColor=none;imageAspect=0;aspect=fixed;image=https://cdn0.iconfinder.com/data/icons/elasto-online-store/26/00-ELASTOFONT-STORE-READY_user-128.png;shadow=0;strokeColor=#CC6600;strokeWidth=2;fillColor=none;fontSize=10;fontColor=#000000;align=center;" vertex="1" parent="ezlwX3yFezyIdX5X7NAo-78">
          <mxGeometry x="285" y="240" width="20" height="20" as="geometry" />
        </mxCell>
        <mxCell id="ezlwX3yFezyIdX5X7NAo-41" value="&lt;font style=&quot;font-size: 10px&quot;&gt;Program&lt;br&gt;Manager&lt;br style=&quot;font-size: 10px&quot;&gt;&lt;/font&gt;" style="shape=image;html=1;verticalAlign=top;verticalLabelPosition=bottom;labelBackgroundColor=none;imageAspect=0;aspect=fixed;image=https://cdn0.iconfinder.com/data/icons/elasto-online-store/26/00-ELASTOFONT-STORE-READY_user-128.png;shadow=0;strokeColor=#CC6600;strokeWidth=2;fillColor=none;fontSize=10;fontColor=#000000;align=center;" vertex="1" parent="ezlwX3yFezyIdX5X7NAo-78">
          <mxGeometry x="315" y="260" width="20" height="20" as="geometry" />
        </mxCell>
        <mxCell id="ezlwX3yFezyIdX5X7NAo-44" value="&lt;font style=&quot;font-size: 10px&quot;&gt;Marketing&lt;br style=&quot;font-size: 10px&quot;&gt;&lt;/font&gt;" style="shape=image;html=1;verticalAlign=top;verticalLabelPosition=bottom;labelBackgroundColor=none;imageAspect=0;aspect=fixed;image=https://cdn0.iconfinder.com/data/icons/elasto-online-store/26/00-ELASTOFONT-STORE-READY_user-128.png;shadow=0;strokeColor=#CC6600;strokeWidth=2;fillColor=none;fontSize=10;fontColor=#000000;align=center;" vertex="1" parent="ezlwX3yFezyIdX5X7NAo-78">
          <mxGeometry x="291.5" y="400" width="20" height="20" as="geometry" />
        </mxCell>
        <mxCell id="ezlwX3yFezyIdX5X7NAo-45" value="&lt;font style=&quot;font-size: 10px&quot;&gt;Accounting&lt;br style=&quot;font-size: 10px&quot;&gt;&lt;/font&gt;" style="shape=image;html=1;verticalAlign=top;verticalLabelPosition=bottom;labelBackgroundColor=none;imageAspect=0;aspect=fixed;image=https://cdn0.iconfinder.com/data/icons/elasto-online-store/26/00-ELASTOFONT-STORE-READY_user-128.png;shadow=0;strokeColor=#CC6600;strokeWidth=2;fillColor=none;fontSize=10;fontColor=#000000;align=center;" vertex="1" parent="ezlwX3yFezyIdX5X7NAo-78">
          <mxGeometry x="225" y="450" width="20" height="20" as="geometry" />
        </mxCell>
        <mxCell id="ezlwX3yFezyIdX5X7NAo-65" value="&lt;font style=&quot;font-size: 10px&quot;&gt;Staff &amp;amp;&lt;br&gt;&amp;nbsp;Agents&lt;br style=&quot;font-size: 10px&quot;&gt;&lt;/font&gt;" style="shape=image;html=1;verticalAlign=top;verticalLabelPosition=bottom;labelBackgroundColor=none;imageAspect=0;aspect=fixed;image=https://cdn0.iconfinder.com/data/icons/elasto-online-store/26/00-ELASTOFONT-STORE-READY_user-128.png;shadow=0;strokeColor=#CC6600;strokeWidth=2;fillColor=none;fontSize=10;fontColor=#000000;align=center;" vertex="1" parent="ezlwX3yFezyIdX5X7NAo-78">
          <mxGeometry x="235" y="280" width="20" height="20" as="geometry" />
        </mxCell>
        <mxCell id="ezlwX3yFezyIdX5X7NAo-71" value="Managing" style="text;html=1;strokeColor=none;fillColor=none;align=center;verticalAlign=middle;whiteSpace=wrap;rounded=0;shadow=0;labelBackgroundColor=none;fontSize=12;fontColor=#000000;" vertex="1" parent="ezlwX3yFezyIdX5X7NAo-78">
          <mxGeometry x="270" y="220" width="50" height="20" as="geometry" />
        </mxCell>
        <mxCell id="ezlwX3yFezyIdX5X7NAo-72" value="Informed" style="text;html=1;strokeColor=none;fillColor=none;align=center;verticalAlign=middle;whiteSpace=wrap;rounded=0;shadow=0;labelBackgroundColor=none;fontSize=12;fontColor=#000000;" vertex="1" parent="ezlwX3yFezyIdX5X7NAo-78">
          <mxGeometry x="255" y="360" width="80" height="20" as="geometry" />
        </mxCell>
        <mxCell id="ezlwX3yFezyIdX5X7NAo-73" value="Consulted" style="text;html=1;strokeColor=none;fillColor=none;align=center;verticalAlign=middle;whiteSpace=wrap;rounded=0;shadow=0;labelBackgroundColor=none;fontSize=12;fontColor=#000000;" vertex="1" parent="ezlwX3yFezyIdX5X7NAo-78">
          <mxGeometry x="145" y="220" width="80" height="20" as="geometry" />
        </mxCell>
        <mxCell id="ezlwX3yFezyIdX5X7NAo-74" value="Accountable" style="text;html=1;strokeColor=none;fillColor=none;align=center;verticalAlign=middle;whiteSpace=wrap;rounded=0;shadow=0;labelBackgroundColor=none;fontSize=12;fontColor=#000000;" vertex="1" parent="ezlwX3yFezyIdX5X7NAo-78">
          <mxGeometry x="340" y="220" width="60" height="20" as="geometry" />
        </mxCell>
        <mxCell id="ezlwX3yFezyIdX5X7NAo-75" value="Supporting" style="text;html=1;strokeColor=none;fillColor=none;align=center;verticalAlign=middle;whiteSpace=wrap;rounded=0;shadow=0;labelBackgroundColor=none;fontSize=12;fontColor=#000000;" vertex="1" parent="ezlwX3yFezyIdX5X7NAo-78">
          <mxGeometry x="335" y="360" width="80" height="20" as="geometry" />
        </mxCell>
        <mxCell id="MzK3O0VDZVXaQ5iThKSW-0" value="&lt;font style=&quot;font-size: 10px&quot;&gt;Security&lt;br style=&quot;font-size: 10px&quot;&gt;&lt;/font&gt;" style="shape=image;html=1;verticalAlign=top;verticalLabelPosition=bottom;labelBackgroundColor=none;imageAspect=0;aspect=fixed;image=https://cdn0.iconfinder.com/data/icons/elasto-online-store/26/00-ELASTOFONT-STORE-READY_user-128.png;shadow=0;strokeColor=#CC6600;strokeWidth=2;fillColor=none;fontSize=10;fontColor=#000000;align=center;" vertex="1" parent="ezlwX3yFezyIdX5X7NAo-78">
          <mxGeometry x="371.5" y="380" width="20" height="20" as="geometry" />
        </mxCell>
        <mxCell id="MzK3O0VDZVXaQ5iThKSW-2" value="&lt;font style=&quot;font-size: 10px&quot;&gt;C &amp;amp; A&lt;br style=&quot;font-size: 10px&quot;&gt;&lt;/font&gt;" style="shape=image;html=1;verticalAlign=top;verticalLabelPosition=bottom;labelBackgroundColor=none;imageAspect=0;aspect=fixed;image=https://cdn0.iconfinder.com/data/icons/elasto-online-store/26/00-ELASTOFONT-STORE-READY_user-128.png;shadow=0;strokeColor=#CC6600;strokeWidth=2;fillColor=none;fontSize=10;fontColor=#000000;align=center;" vertex="1" parent="ezlwX3yFezyIdX5X7NAo-78">
          <mxGeometry x="340" y="400" width="20" height="20" as="geometry" />
        </mxCell>
        <mxCell id="MzK3O0VDZVXaQ5iThKSW-5" value="&lt;font style=&quot;font-size: 10px&quot;&gt;Change&lt;br&gt;Control&lt;br style=&quot;font-size: 10px&quot;&gt;&lt;/font&gt;" style="shape=image;html=1;verticalAlign=top;verticalLabelPosition=bottom;labelBackgroundColor=none;imageAspect=0;aspect=fixed;image=https://cdn0.iconfinder.com/data/icons/elasto-online-store/26/00-ELASTOFONT-STORE-READY_user-128.png;shadow=0;strokeColor=#CC6600;strokeWidth=2;fillColor=none;fontSize=10;fontColor=#000000;align=center;" vertex="1" parent="ezlwX3yFezyIdX5X7NAo-78">
          <mxGeometry x="370" y="440" width="20" height="20" as="geometry" />
        </mxCell>
        <mxCell id="MzK3O0VDZVXaQ5iThKSW-50" value="&lt;i&gt;&lt;font color=&quot;#000000&quot;&gt;&quot;Monitor&quot;&lt;/font&gt;&lt;/i&gt;" style="whiteSpace=wrap;html=1;aspect=fixed;shadow=0;labelBackgroundColor=none;strokeColor=#666666;strokeWidth=2;fillColor=#f5f5f5;fontSize=9;fontColor=#333333;align=center;verticalAlign=top;" vertex="1" parent="ezlwX3yFezyIdX5X7NAo-78">
          <mxGeometry x="430" y="380" width="121" height="121" as="geometry" />
        </mxCell>
        <mxCell id="MzK3O0VDZVXaQ5iThKSW-51" value="&lt;i&gt;&quot;Keep Informed&quot;&lt;/i&gt;" style="whiteSpace=wrap;html=1;aspect=fixed;shadow=0;labelBackgroundColor=none;strokeColor=#666666;strokeWidth=2;fillColor=#f5f5f5;fontSize=9;fontColor=#333333;align=center;verticalAlign=top;" vertex="1" parent="ezlwX3yFezyIdX5X7NAo-78">
          <mxGeometry x="560" y="380" width="120" height="120" as="geometry" />
        </mxCell>
        <mxCell id="MzK3O0VDZVXaQ5iThKSW-52" value="&lt;i&gt;&quot;Manage Closely&quot;&lt;/i&gt;" style="whiteSpace=wrap;html=1;aspect=fixed;shadow=0;labelBackgroundColor=none;strokeColor=#666666;strokeWidth=2;fillColor=#f5f5f5;fontSize=9;fontColor=#333333;align=center;verticalAlign=top;" vertex="1" parent="ezlwX3yFezyIdX5X7NAo-78">
          <mxGeometry x="560" y="240" width="120" height="120" as="geometry" />
        </mxCell>
        <mxCell id="MzK3O0VDZVXaQ5iThKSW-53" value="&quot;&lt;i&gt;Keep Satisfied&lt;/i&gt;&quot;" style="whiteSpace=wrap;html=1;aspect=fixed;shadow=0;labelBackgroundColor=none;strokeColor=#666666;strokeWidth=2;fillColor=#f5f5f5;fontSize=9;fontColor=#333333;align=center;verticalAlign=top;" vertex="1" parent="ezlwX3yFezyIdX5X7NAo-78">
          <mxGeometry x="430" y="240" width="120" height="120" as="geometry" />
        </mxCell>
        <mxCell id="MzK3O0VDZVXaQ5iThKSW-54" value="&lt;b style=&quot;font-size: 12px;&quot;&gt;&lt;font style=&quot;font-size: 12px;&quot; color=&quot;#000000&quot;&gt;INFLUENCE&lt;/font&gt;&lt;/b&gt;" style="html=1;shadow=0;dashed=0;align=center;verticalAlign=middle;shape=mxgraph.arrows2.arrow;dy=0.48;dx=20;notch=0;labelBackgroundColor=none;strokeColor=#666666;strokeWidth=2;fillColor=none;fontSize=12;fontColor=#00994D;" vertex="1" parent="ezlwX3yFezyIdX5X7NAo-78">
          <mxGeometry x="430" y="510" width="250" height="30" as="geometry" />
        </mxCell>
        <mxCell id="MzK3O0VDZVXaQ5iThKSW-60" value="&lt;font style=&quot;font-size: 10px&quot;&gt;Competitors&lt;br style=&quot;font-size: 10px&quot;&gt;&lt;/font&gt;" style="shape=image;html=1;verticalAlign=top;verticalLabelPosition=bottom;labelBackgroundColor=none;imageAspect=0;aspect=fixed;image=https://cdn0.iconfinder.com/data/icons/elasto-online-store/26/00-ELASTOFONT-STORE-READY_user-128.png;shadow=0;strokeColor=#CC6600;strokeWidth=2;fillColor=none;fontSize=10;fontColor=#000000;align=center;" vertex="1" parent="ezlwX3yFezyIdX5X7NAo-78">
          <mxGeometry x="505" y="440" width="20" height="20" as="geometry" />
        </mxCell>
        <mxCell id="MzK3O0VDZVXaQ5iThKSW-66" value="&lt;font style=&quot;font-size: 10px&quot;&gt;Agencies&lt;br style=&quot;font-size: 10px&quot;&gt;&lt;/font&gt;" style="shape=image;html=1;verticalAlign=top;verticalLabelPosition=bottom;labelBackgroundColor=none;imageAspect=0;aspect=fixed;image=https://cdn0.iconfinder.com/data/icons/elasto-online-store/26/00-ELASTOFONT-STORE-READY_user-128.png;shadow=0;strokeColor=#CC6600;strokeWidth=2;fillColor=none;fontSize=10;fontColor=#000000;align=center;" vertex="1" parent="ezlwX3yFezyIdX5X7NAo-78">
          <mxGeometry x="589" y="310" width="20" height="20" as="geometry" />
        </mxCell>
        <mxCell id="MzK3O0VDZVXaQ5iThKSW-67" value="&lt;font style=&quot;font-size: 10px&quot;&gt;Students&lt;br style=&quot;font-size: 10px&quot;&gt;&lt;/font&gt;" style="shape=image;html=1;verticalAlign=top;verticalLabelPosition=bottom;labelBackgroundColor=none;imageAspect=0;aspect=fixed;image=https://cdn0.iconfinder.com/data/icons/elasto-online-store/26/00-ELASTOFONT-STORE-READY_user-128.png;shadow=0;strokeColor=#CC6600;strokeWidth=2;fillColor=none;fontSize=10;fontColor=#000000;align=center;" vertex="1" parent="ezlwX3yFezyIdX5X7NAo-78">
          <mxGeometry x="445" y="270" width="20" height="20" as="geometry" />
        </mxCell>
        <mxCell id="MzK3O0VDZVXaQ5iThKSW-68" value="&lt;font style=&quot;font-size: 10px&quot;&gt;Family&lt;br style=&quot;font-size: 10px&quot;&gt;&lt;/font&gt;" style="shape=image;html=1;verticalAlign=top;verticalLabelPosition=bottom;labelBackgroundColor=none;imageAspect=0;aspect=fixed;image=https://cdn0.iconfinder.com/data/icons/elasto-online-store/26/00-ELASTOFONT-STORE-READY_user-128.png;shadow=0;strokeColor=#CC6600;strokeWidth=2;fillColor=none;fontSize=10;fontColor=#000000;align=center;" vertex="1" parent="ezlwX3yFezyIdX5X7NAo-78">
          <mxGeometry x="485" y="270" width="20" height="20" as="geometry" />
        </mxCell>
        <mxCell id="MzK3O0VDZVXaQ5iThKSW-69" value="&lt;font style=&quot;font-size: 10px&quot;&gt;Teachers&lt;br style=&quot;font-size: 10px&quot;&gt;&lt;/font&gt;" style="shape=image;html=1;verticalAlign=top;verticalLabelPosition=bottom;labelBackgroundColor=none;imageAspect=0;aspect=fixed;image=https://cdn0.iconfinder.com/data/icons/elasto-online-store/26/00-ELASTOFONT-STORE-READY_user-128.png;shadow=0;strokeColor=#CC6600;strokeWidth=2;fillColor=none;fontSize=10;fontColor=#000000;align=center;" vertex="1" parent="ezlwX3yFezyIdX5X7NAo-78">
          <mxGeometry x="528" y="240" width="20" height="20" as="geometry" />
        </mxCell>
        <mxCell id="MzK3O0VDZVXaQ5iThKSW-70" value="&lt;font style=&quot;font-size: 10px&quot;&gt;Local &lt;br&gt;Community&lt;br style=&quot;font-size: 10px&quot;&gt;&lt;/font&gt;" style="shape=image;html=1;verticalAlign=top;verticalLabelPosition=bottom;labelBackgroundColor=none;imageAspect=0;aspect=fixed;image=https://cdn0.iconfinder.com/data/icons/elasto-online-store/26/00-ELASTOFONT-STORE-READY_user-128.png;shadow=0;strokeColor=#CC6600;strokeWidth=2;fillColor=none;fontSize=10;fontColor=#000000;align=center;" vertex="1" parent="ezlwX3yFezyIdX5X7NAo-78">
          <mxGeometry x="599" y="410" width="20" height="20" as="geometry" />
        </mxCell>
        <mxCell id="MzK3O0VDZVXaQ5iThKSW-71" value="&lt;font style=&quot;font-size: 10px&quot;&gt;Resellers&lt;br style=&quot;font-size: 10px&quot;&gt;&lt;/font&gt;" style="shape=image;html=1;verticalAlign=top;verticalLabelPosition=bottom;labelBackgroundColor=none;imageAspect=0;aspect=fixed;image=https://cdn0.iconfinder.com/data/icons/elasto-online-store/26/00-ELASTOFONT-STORE-READY_user-128.png;shadow=0;strokeColor=#CC6600;strokeWidth=2;fillColor=none;fontSize=10;fontColor=#000000;align=center;" vertex="1" parent="ezlwX3yFezyIdX5X7NAo-78">
          <mxGeometry x="505" y="390" width="20" height="20" as="geometry" />
        </mxCell>
        <mxCell id="MzK3O0VDZVXaQ5iThKSW-72" value="&lt;font style=&quot;font-size: 10px&quot;&gt;Suppliers&lt;br style=&quot;font-size: 10px&quot;&gt;&lt;/font&gt;" style="shape=image;html=1;verticalAlign=top;verticalLabelPosition=bottom;labelBackgroundColor=none;imageAspect=0;aspect=fixed;image=https://cdn0.iconfinder.com/data/icons/elasto-online-store/26/00-ELASTOFONT-STORE-READY_user-128.png;shadow=0;strokeColor=#CC6600;strokeWidth=2;fillColor=none;fontSize=10;fontColor=#000000;align=center;" vertex="1" parent="ezlwX3yFezyIdX5X7NAo-78">
          <mxGeometry x="446.5" y="450" width="20" height="20" as="geometry" />
        </mxCell>
        <mxCell id="MzK3O0VDZVXaQ5iThKSW-75" value="Managing" style="text;html=1;strokeColor=none;fillColor=none;align=center;verticalAlign=middle;whiteSpace=wrap;rounded=0;shadow=0;labelBackgroundColor=none;fontSize=12;fontColor=#000000;" vertex="1" parent="ezlwX3yFezyIdX5X7NAo-78">
          <mxGeometry x="550" y="220" width="50" height="20" as="geometry" />
        </mxCell>
        <mxCell id="MzK3O0VDZVXaQ5iThKSW-76" value="Informed" style="text;html=1;strokeColor=none;fillColor=none;align=center;verticalAlign=middle;whiteSpace=wrap;rounded=0;shadow=0;labelBackgroundColor=none;fontSize=12;fontColor=#000000;" vertex="1" parent="ezlwX3yFezyIdX5X7NAo-78">
          <mxGeometry x="540" y="360" width="80" height="20" as="geometry" />
        </mxCell>
        <mxCell id="MzK3O0VDZVXaQ5iThKSW-77" value="Consulted" style="text;html=1;strokeColor=none;fillColor=none;align=center;verticalAlign=middle;whiteSpace=wrap;rounded=0;shadow=0;labelBackgroundColor=none;fontSize=12;fontColor=#000000;" vertex="1" parent="ezlwX3yFezyIdX5X7NAo-78">
          <mxGeometry x="420" y="220" width="80" height="20" as="geometry" />
        </mxCell>
        <mxCell id="MzK3O0VDZVXaQ5iThKSW-78" value="Accountable" style="text;html=1;strokeColor=none;fillColor=none;align=center;verticalAlign=middle;whiteSpace=wrap;rounded=0;shadow=0;labelBackgroundColor=none;fontSize=12;fontColor=#000000;" vertex="1" parent="ezlwX3yFezyIdX5X7NAo-78">
          <mxGeometry x="620" y="220" width="59" height="20" as="geometry" />
        </mxCell>
        <mxCell id="MzK3O0VDZVXaQ5iThKSW-79" value="Supporting" style="text;html=1;strokeColor=none;fillColor=none;align=center;verticalAlign=middle;whiteSpace=wrap;rounded=0;shadow=0;labelBackgroundColor=none;fontSize=12;fontColor=#000000;" vertex="1" parent="ezlwX3yFezyIdX5X7NAo-78">
          <mxGeometry x="610" y="360" width="80" height="20" as="geometry" />
        </mxCell>
        <mxCell id="MzK3O0VDZVXaQ5iThKSW-83" value="&lt;font style=&quot;font-size: 10px&quot;&gt;Media&lt;br style=&quot;font-size: 10px&quot;&gt;&lt;/font&gt;" style="shape=image;html=1;verticalAlign=top;verticalLabelPosition=bottom;labelBackgroundColor=none;imageAspect=0;aspect=fixed;image=https://cdn0.iconfinder.com/data/icons/elasto-online-store/26/00-ELASTOFONT-STORE-READY_user-128.png;shadow=0;strokeColor=#CC6600;strokeWidth=2;fillColor=none;fontSize=10;fontColor=#000000;align=center;" vertex="1" parent="ezlwX3yFezyIdX5X7NAo-78">
          <mxGeometry x="649" y="410" width="20" height="20" as="geometry" />
        </mxCell>
        <mxCell id="MzK3O0VDZVXaQ5iThKSW-84" value="&lt;font style=&quot;font-size: 10px&quot;&gt;Minister&lt;br style=&quot;font-size: 10px&quot;&gt;&lt;/font&gt;" style="shape=image;html=1;verticalAlign=top;verticalLabelPosition=bottom;labelBackgroundColor=none;imageAspect=0;aspect=fixed;image=https://cdn0.iconfinder.com/data/icons/elasto-online-store/26/00-ELASTOFONT-STORE-READY_user-128.png;shadow=0;strokeColor=#CC6600;strokeWidth=2;fillColor=none;fontSize=10;fontColor=#000000;align=center;" vertex="1" parent="ezlwX3yFezyIdX5X7NAo-78">
          <mxGeometry x="655" y="310" width="20" height="20" as="geometry" />
        </mxCell>
        <mxCell id="MzK3O0VDZVXaQ5iThKSW-85" value="&lt;font style=&quot;font-size: 10px&quot;&gt;Peak Body&lt;br style=&quot;font-size: 10px&quot;&gt;&lt;/font&gt;" style="shape=image;html=1;verticalAlign=top;verticalLabelPosition=bottom;labelBackgroundColor=none;imageAspect=0;aspect=fixed;image=https://cdn0.iconfinder.com/data/icons/elasto-online-store/26/00-ELASTOFONT-STORE-READY_user-128.png;shadow=0;strokeColor=#CC6600;strokeWidth=2;fillColor=none;fontSize=10;fontColor=#000000;align=center;" vertex="1" parent="ezlwX3yFezyIdX5X7NAo-78">
          <mxGeometry x="515" y="300" width="20" height="20" as="geometry" />
        </mxCell>
        <mxCell id="MzK3O0VDZVXaQ5iThKSW-86" value="&lt;font style=&quot;font-size: 10px&quot;&gt;Professional&lt;br&gt;Body&lt;br style=&quot;font-size: 10px&quot;&gt;&lt;/font&gt;" style="shape=image;html=1;verticalAlign=top;verticalLabelPosition=bottom;labelBackgroundColor=none;imageAspect=0;aspect=fixed;image=https://cdn0.iconfinder.com/data/icons/elasto-online-store/26/00-ELASTOFONT-STORE-READY_user-128.png;shadow=0;strokeColor=#CC6600;strokeWidth=2;fillColor=none;fontSize=10;fontColor=#000000;align=center;" vertex="1" parent="ezlwX3yFezyIdX5X7NAo-78">
          <mxGeometry x="455" y="400" width="20" height="20" as="geometry" />
        </mxCell>
        <mxCell id="EyaNbm35NIdPRT9VVfoj-0" value="&lt;b&gt;External&lt;/b&gt;" style="rounded=1;align=center;fillColor=#F1F2F4;strokeColor=none;html=1;fontColor=#596780;fontSize=12;shadow=0;labelBackgroundColor=none;" vertex="1" parent="ezlwX3yFezyIdX5X7NAo-78">
          <mxGeometry x="430" y="180" width="250" height="20" as="geometry" />
        </mxCell>
        <mxCell id="nMhLIyzpudsI-h3tjrNN-0" value="Title/Diagram" parent="u-42Sj3VqcFQKL4iuGMg-0" />
        <mxCell id="nMhLIyzpudsI-h3tjrNN-1" value="&lt;font style=&quot;font-size: 12px&quot;&gt;&lt;span style=&quot;font-size: 12px&quot;&gt;Diagram: &lt;/span&gt;System Context - Stakeholders - Influence/Interest Map&lt;/font&gt;" style="text;strokeColor=none;fillColor=none;html=1;fontSize=12;fontStyle=2;verticalAlign=middle;align=left;shadow=0;glass=0;comic=0;opacity=30;fontColor=#808080;" vertex="1" parent="nMhLIyzpudsI-h3tjrNN-0">
          <mxGeometry x="120" y="564" width="520" height="16" as="geometry" />
        </mxCell>
      </root>
    </mxGraphModel>
  </diagram>
  <diagram id="LD6tzs28sTI-ByqXFtpb" name="System Context/Stakeholder Map">
    <mxGraphModel grid="1" page="1" gridSize="10" guides="1" tooltips="1" connect="1" arrows="1" fold="1" pageScale="1" pageWidth="827" pageHeight="1169" math="0" shadow="0">
      <root>
        <mxCell id="AG6ojbgLePJ8lH-RuyDG-0" />
        <mxCell id="AG6ojbgLePJ8lH-RuyDG-1" value="Diagram" style="" parent="AG6ojbgLePJ8lH-RuyDG-0" />
        <mxCell id="55LUZK9bKvVkk8YtQMWV-75" value="Informed&lt;br style=&quot;font-size: 12px;&quot;&gt;Stakeholders" style="ellipse;whiteSpace=wrap;html=1;aspect=fixed;shadow=0;labelBackgroundColor=none;strokeColor=#666666;strokeWidth=2;fillColor=none;fontSize=12;fontColor=#000000;align=center;verticalAlign=top;" vertex="1" parent="AG6ojbgLePJ8lH-RuyDG-1">
          <mxGeometry x="120" y="180" width="560" height="560" as="geometry" />
        </mxCell>
        <mxCell id="XSSpNiOcb2BPZwE2I5IM-7" value="Secondary/Useful Stakeholders" style="ellipse;whiteSpace=wrap;html=1;aspect=fixed;shadow=0;labelBackgroundColor=none;strokeColor=#666666;strokeWidth=2;fillColor=none;fontSize=12;fontColor=#000000;align=center;verticalAlign=top;" vertex="1" parent="AG6ojbgLePJ8lH-RuyDG-1">
          <mxGeometry x="180" y="240" width="440" height="440" as="geometry" />
        </mxCell>
        <mxCell id="AG6ojbgLePJ8lH-RuyDG-4" value="Primary/Necessary&lt;br style=&quot;font-size: 12px;&quot;&gt;&amp;nbsp;Stakeholders" style="ellipse;whiteSpace=wrap;html=1;aspect=fixed;shadow=0;labelBackgroundColor=none;strokeColor=#666666;strokeWidth=2;fillColor=none;fontSize=12;fontColor=#000000;align=center;verticalAlign=top;" vertex="1" parent="AG6ojbgLePJ8lH-RuyDG-1">
          <mxGeometry x="240" y="300" width="320" height="320" as="geometry" />
        </mxCell>
        <mxCell id="AG6ojbgLePJ8lH-RuyDG-3" value="Vital/Partner&lt;br style=&quot;font-size: 12px;&quot;&gt;Stakeholders" style="ellipse;whiteSpace=wrap;html=1;aspect=fixed;shadow=0;labelBackgroundColor=none;strokeColor=#666666;strokeWidth=2;fillColor=none;fontSize=12;fontColor=#000000;align=center;verticalAlign=top;" vertex="1" parent="AG6ojbgLePJ8lH-RuyDG-1">
          <mxGeometry x="300" y="360" width="200" height="200" as="geometry" />
        </mxCell>
        <mxCell id="XSSpNiOcb2BPZwE2I5IM-0" value="&lt;font style=&quot;font-size: 12px;&quot;&gt;Executive&lt;br style=&quot;font-size: 12px;&quot;&gt;Sponsor&lt;br style=&quot;font-size: 12px;&quot;&gt;&lt;/font&gt;" style="shape=image;html=1;verticalAlign=top;verticalLabelPosition=bottom;labelBackgroundColor=none;imageAspect=0;aspect=fixed;image=https://cdn0.iconfinder.com/data/icons/elasto-online-store/26/00-ELASTOFONT-STORE-READY_user-128.png;shadow=0;strokeColor=#CC6600;strokeWidth=2;fillColor=none;fontSize=12;fontColor=#000000;align=center;" vertex="1" parent="AG6ojbgLePJ8lH-RuyDG-1">
          <mxGeometry x="310" y="470" width="20" height="20" as="geometry" />
        </mxCell>
        <mxCell id="XSSpNiOcb2BPZwE2I5IM-1" value="&lt;font style=&quot;font-size: 12px;&quot;&gt;Project&lt;br style=&quot;font-size: 12px;&quot;&gt;Sponsor&lt;br style=&quot;font-size: 12px;&quot;&gt;&lt;/font&gt;" style="shape=image;html=1;verticalAlign=top;verticalLabelPosition=bottom;labelBackgroundColor=none;imageAspect=0;aspect=fixed;image=https://cdn0.iconfinder.com/data/icons/elasto-online-store/26/00-ELASTOFONT-STORE-READY_user-128.png;shadow=0;strokeColor=#CC6600;strokeWidth=2;fillColor=none;fontSize=12;fontColor=#000000;align=center;" vertex="1" parent="AG6ojbgLePJ8lH-RuyDG-1">
          <mxGeometry x="360" y="470" width="20" height="20" as="geometry" />
        </mxCell>
        <mxCell id="XSSpNiOcb2BPZwE2I5IM-3" value="&lt;font style=&quot;font-size: 12px;&quot;&gt;Program&lt;br style=&quot;font-size: 12px;&quot;&gt;Manager&lt;br style=&quot;font-size: 12px;&quot;&gt;&lt;/font&gt;" style="shape=image;html=1;verticalAlign=top;verticalLabelPosition=bottom;labelBackgroundColor=none;imageAspect=0;aspect=fixed;image=https://cdn0.iconfinder.com/data/icons/elasto-online-store/26/00-ELASTOFONT-STORE-READY_user-128.png;shadow=0;strokeColor=#CC6600;strokeWidth=2;fillColor=none;fontSize=12;fontColor=#000000;align=center;" vertex="1" parent="AG6ojbgLePJ8lH-RuyDG-1">
          <mxGeometry x="410" y="470" width="20" height="20" as="geometry" />
        </mxCell>
        <mxCell id="XSSpNiOcb2BPZwE2I5IM-4" value="&lt;font style=&quot;font-size: 12px;&quot;&gt;Project&lt;br style=&quot;font-size: 12px;&quot;&gt;Manager&lt;br style=&quot;font-size: 12px;&quot;&gt;&lt;/font&gt;" style="shape=image;html=1;verticalAlign=top;verticalLabelPosition=bottom;labelBackgroundColor=none;imageAspect=0;aspect=fixed;image=https://cdn0.iconfinder.com/data/icons/elasto-online-store/26/00-ELASTOFONT-STORE-READY_user-128.png;shadow=0;strokeColor=#CC6600;strokeWidth=2;fillColor=none;fontSize=12;fontColor=#000000;align=center;" vertex="1" parent="AG6ojbgLePJ8lH-RuyDG-1">
          <mxGeometry x="460" y="470" width="20" height="20" as="geometry" />
        </mxCell>
        <mxCell id="55LUZK9bKvVkk8YtQMWV-7" value="&lt;font style=&quot;font-size: 12px;&quot;&gt;Community&lt;br style=&quot;font-size: 12px;&quot;&gt;&lt;/font&gt;" style="shape=image;html=1;verticalAlign=top;verticalLabelPosition=bottom;labelBackgroundColor=none;imageAspect=0;aspect=fixed;image=https://cdn0.iconfinder.com/data/icons/elasto-online-store/26/00-ELASTOFONT-STORE-READY_user-128.png;shadow=0;strokeColor=#CC6600;strokeWidth=2;fillColor=none;fontSize=12;fontColor=#000000;align=center;" vertex="1" parent="AG6ojbgLePJ8lH-RuyDG-1">
          <mxGeometry x="140" y="410" width="20" height="20" as="geometry" />
        </mxCell>
        <mxCell id="55LUZK9bKvVkk8YtQMWV-10" value="&lt;font style=&quot;font-size: 12px;&quot;&gt;Agency&lt;br style=&quot;font-size: 12px;&quot;&gt;&lt;/font&gt;" style="shape=image;html=1;verticalAlign=top;verticalLabelPosition=bottom;labelBackgroundColor=none;imageAspect=0;aspect=fixed;image=https://cdn0.iconfinder.com/data/icons/elasto-online-store/26/00-ELASTOFONT-STORE-READY_user-128.png;shadow=0;strokeColor=#CC6600;strokeWidth=2;fillColor=none;fontSize=12;fontColor=#000000;align=center;" vertex="1" parent="AG6ojbgLePJ8lH-RuyDG-1">
          <mxGeometry x="520" y="410" width="20" height="20" as="geometry" />
        </mxCell>
        <mxCell id="55LUZK9bKvVkk8YtQMWV-11" value="&lt;font style=&quot;font-size: 12px;&quot;&gt;CEO/&lt;br style=&quot;font-size: 12px;&quot;&gt;Secretary&lt;br style=&quot;font-size: 12px;&quot;&gt;&lt;/font&gt;" style="shape=image;html=1;verticalAlign=top;verticalLabelPosition=bottom;labelBackgroundColor=none;imageAspect=0;aspect=fixed;image=https://cdn0.iconfinder.com/data/icons/elasto-online-store/26/00-ELASTOFONT-STORE-READY_user-128.png;shadow=0;strokeColor=#CC6600;strokeWidth=2;fillColor=none;fontSize=12;fontColor=#000000;align=center;" vertex="1" parent="AG6ojbgLePJ8lH-RuyDG-1">
          <mxGeometry x="260" y="470" width="20" height="20" as="geometry" />
        </mxCell>
        <mxCell id="55LUZK9bKvVkk8YtQMWV-15" value="&lt;font style=&quot;font-size: 12px;&quot;&gt;Parents&lt;br style=&quot;font-size: 12px;&quot;&gt;&lt;/font&gt;" style="shape=image;html=1;verticalAlign=top;verticalLabelPosition=bottom;labelBackgroundColor=none;imageAspect=0;aspect=fixed;image=https://cdn0.iconfinder.com/data/icons/elasto-online-store/26/00-ELASTOFONT-STORE-READY_user-128.png;shadow=0;strokeColor=#CC6600;strokeWidth=2;fillColor=none;fontSize=12;fontColor=#000000;align=center;" vertex="1" parent="AG6ojbgLePJ8lH-RuyDG-1">
          <mxGeometry x="250" y="310" width="20" height="20" as="geometry" />
        </mxCell>
        <mxCell id="55LUZK9bKvVkk8YtQMWV-18" value="&lt;font style=&quot;font-size: 12px;&quot;&gt;Family&lt;br style=&quot;font-size: 12px;&quot;&gt;&lt;/font&gt;" style="shape=image;html=1;verticalAlign=top;verticalLabelPosition=bottom;labelBackgroundColor=none;imageAspect=0;aspect=fixed;image=https://cdn0.iconfinder.com/data/icons/elasto-online-store/26/00-ELASTOFONT-STORE-READY_user-128.png;shadow=0;strokeColor=#CC6600;strokeWidth=2;fillColor=none;fontSize=12;fontColor=#000000;align=center;" vertex="1" parent="AG6ojbgLePJ8lH-RuyDG-1">
          <mxGeometry x="220" y="360" width="20" height="20" as="geometry" />
        </mxCell>
        <mxCell id="55LUZK9bKvVkk8YtQMWV-23" value="&lt;font style=&quot;font-size: 12px;&quot;&gt;Students&lt;br style=&quot;font-size: 12px;&quot;&gt;&lt;/font&gt;" style="shape=image;html=1;verticalAlign=top;verticalLabelPosition=bottom;labelBackgroundColor=none;imageAspect=0;aspect=fixed;image=https://cdn0.iconfinder.com/data/icons/elasto-online-store/26/00-ELASTOFONT-STORE-READY_user-128.png;shadow=0;strokeColor=#CC6600;strokeWidth=2;fillColor=none;fontSize=12;fontColor=#000000;align=center;" vertex="1" parent="AG6ojbgLePJ8lH-RuyDG-1">
          <mxGeometry x="280" y="360" width="20" height="20" as="geometry" />
        </mxCell>
        <mxCell id="55LUZK9bKvVkk8YtQMWV-24" value="&lt;font style=&quot;font-size: 12px;&quot;&gt;Minister&lt;br style=&quot;font-size: 12px;&quot;&gt;&lt;/font&gt;" style="shape=image;html=1;verticalAlign=top;verticalLabelPosition=bottom;labelBackgroundColor=none;imageAspect=0;aspect=fixed;image=https://cdn0.iconfinder.com/data/icons/elasto-online-store/26/00-ELASTOFONT-STORE-READY_user-128.png;shadow=0;strokeColor=#CC6600;strokeWidth=2;fillColor=none;fontSize=12;fontColor=#000000;align=center;" vertex="1" parent="AG6ojbgLePJ8lH-RuyDG-1">
          <mxGeometry x="260" y="410" width="20" height="20" as="geometry" />
        </mxCell>
        <mxCell id="55LUZK9bKvVkk8YtQMWV-25" value="&lt;font style=&quot;font-size: 12px;&quot;&gt;CDO&lt;br style=&quot;font-size: 12px;&quot;&gt;&lt;/font&gt;" style="shape=image;html=1;verticalAlign=top;verticalLabelPosition=bottom;labelBackgroundColor=none;imageAspect=0;aspect=fixed;image=https://cdn0.iconfinder.com/data/icons/elasto-online-store/26/00-ELASTOFONT-STORE-READY_user-128.png;shadow=0;strokeColor=#CC6600;strokeWidth=2;fillColor=none;fontSize=12;fontColor=#000000;align=center;" vertex="1" parent="AG6ojbgLePJ8lH-RuyDG-1">
          <mxGeometry x="500" y="500" width="20" height="20" as="geometry" />
        </mxCell>
        <mxCell id="55LUZK9bKvVkk8YtQMWV-26" value="&lt;font style=&quot;font-size: 12px;&quot;&gt;Peak&lt;br style=&quot;font-size: 12px;&quot;&gt;Bodies&lt;br style=&quot;font-size: 12px;&quot;&gt;&lt;/font&gt;" style="shape=image;html=1;verticalAlign=top;verticalLabelPosition=bottom;labelBackgroundColor=none;imageAspect=0;aspect=fixed;image=https://cdn0.iconfinder.com/data/icons/elasto-online-store/26/00-ELASTOFONT-STORE-READY_user-128.png;shadow=0;strokeColor=#CC6600;strokeWidth=2;fillColor=none;fontSize=12;fontColor=#000000;align=center;" vertex="1" parent="AG6ojbgLePJ8lH-RuyDG-1">
          <mxGeometry x="460" y="260" width="20" height="20" as="geometry" />
        </mxCell>
        <mxCell id="55LUZK9bKvVkk8YtQMWV-27" value="&lt;font style=&quot;font-size: 12px;&quot;&gt;C&amp;amp;A&lt;br style=&quot;font-size: 12px;&quot;&gt;&lt;/font&gt;" style="shape=image;html=1;verticalAlign=top;verticalLabelPosition=bottom;labelBackgroundColor=none;imageAspect=0;aspect=fixed;image=https://cdn0.iconfinder.com/data/icons/elasto-online-store/26/00-ELASTOFONT-STORE-READY_user-128.png;shadow=0;strokeColor=#CC6600;strokeWidth=2;fillColor=none;fontSize=12;fontColor=#000000;align=center;" vertex="1" parent="AG6ojbgLePJ8lH-RuyDG-1">
          <mxGeometry x="570" y="470" width="20" height="20" as="geometry" />
        </mxCell>
        <mxCell id="55LUZK9bKvVkk8YtQMWV-29" value="&lt;font style=&quot;font-size: 12px;&quot;&gt;Professional&lt;br style=&quot;font-size: 12px;&quot;&gt;Bodies&lt;br style=&quot;font-size: 12px;&quot;&gt;&lt;/font&gt;" style="shape=image;html=1;verticalAlign=top;verticalLabelPosition=bottom;labelBackgroundColor=none;imageAspect=0;aspect=fixed;image=https://cdn0.iconfinder.com/data/icons/elasto-online-store/26/00-ELASTOFONT-STORE-READY_user-128.png;shadow=0;strokeColor=#CC6600;strokeWidth=2;fillColor=none;fontSize=12;fontColor=#000000;align=center;" vertex="1" parent="AG6ojbgLePJ8lH-RuyDG-1">
          <mxGeometry x="600" y="300" width="20" height="20" as="geometry" />
        </mxCell>
        <mxCell id="55LUZK9bKvVkk8YtQMWV-34" value="&lt;font style=&quot;font-size: 12px;&quot;&gt;Customer&lt;br style=&quot;font-size: 12px;&quot;&gt;Support&lt;br style=&quot;font-size: 12px;&quot;&gt;&lt;/font&gt;" style="shape=image;html=1;verticalAlign=top;verticalLabelPosition=bottom;labelBackgroundColor=none;imageAspect=0;aspect=fixed;image=https://cdn0.iconfinder.com/data/icons/elasto-online-store/26/00-ELASTOFONT-STORE-READY_user-128.png;shadow=0;strokeColor=#CC6600;strokeWidth=2;fillColor=none;fontSize=12;fontColor=#000000;align=center;" vertex="1" parent="AG6ojbgLePJ8lH-RuyDG-1">
          <mxGeometry x="200" y="470" width="20" height="20" as="geometry" />
        </mxCell>
        <mxCell id="55LUZK9bKvVkk8YtQMWV-54" value="&lt;font style=&quot;font-size: 12px;&quot;&gt;Dev &lt;br style=&quot;font-size: 12px;&quot;&gt;Vendor&lt;br style=&quot;font-size: 12px;&quot;&gt;&lt;/font&gt;" style="shape=image;html=1;verticalAlign=top;verticalLabelPosition=bottom;labelBackgroundColor=none;imageAspect=0;aspect=fixed;image=https://cdn0.iconfinder.com/data/icons/elasto-online-store/26/00-ELASTOFONT-STORE-READY_user-128.png;shadow=0;strokeColor=#CC6600;strokeWidth=2;fillColor=none;fontSize=12;fontColor=#000000;align=center;" vertex="1" parent="AG6ojbgLePJ8lH-RuyDG-1">
          <mxGeometry x="330" y="400" width="20" height="20" as="geometry" />
        </mxCell>
        <mxCell id="55LUZK9bKvVkk8YtQMWV-58" value="&lt;font style=&quot;font-size: 12px;&quot;&gt;System&lt;br style=&quot;font-size: 12px;&quot;&gt;Integrators&lt;br style=&quot;font-size: 12px;&quot;&gt;&lt;/font&gt;" style="shape=image;html=1;verticalAlign=top;verticalLabelPosition=bottom;labelBackgroundColor=none;imageAspect=0;aspect=fixed;image=https://cdn0.iconfinder.com/data/icons/elasto-online-store/26/00-ELASTOFONT-STORE-READY_user-128.png;shadow=0;strokeColor=#CC6600;strokeWidth=2;fillColor=none;fontSize=12;fontColor=#000000;align=center;" vertex="1" parent="AG6ojbgLePJ8lH-RuyDG-1">
          <mxGeometry x="510" y="210" width="20" height="20" as="geometry" />
        </mxCell>
        <mxCell id="55LUZK9bKvVkk8YtQMWV-60" value="&lt;font style=&quot;font-size: 12px;&quot;&gt;Suppliers&lt;br style=&quot;font-size: 12px;&quot;&gt;&lt;/font&gt;" style="shape=image;html=1;verticalAlign=top;verticalLabelPosition=bottom;labelBackgroundColor=none;imageAspect=0;aspect=fixed;image=https://cdn0.iconfinder.com/data/icons/elasto-online-store/26/00-ELASTOFONT-STORE-READY_user-128.png;shadow=0;strokeColor=#CC6600;strokeWidth=2;fillColor=none;fontSize=12;fontColor=#000000;align=center;" vertex="1" parent="AG6ojbgLePJ8lH-RuyDG-1">
          <mxGeometry x="550" y="360" width="20" height="20" as="geometry" />
        </mxCell>
        <mxCell id="55LUZK9bKvVkk8YtQMWV-61" value="&lt;font style=&quot;font-size: 12px;&quot;&gt;Distributors&lt;br style=&quot;font-size: 12px;&quot;&gt;&lt;/font&gt;" style="shape=image;html=1;verticalAlign=top;verticalLabelPosition=bottom;labelBackgroundColor=none;imageAspect=0;aspect=fixed;image=https://cdn0.iconfinder.com/data/icons/elasto-online-store/26/00-ELASTOFONT-STORE-READY_user-128.png;shadow=0;strokeColor=#CC6600;strokeWidth=2;fillColor=none;fontSize=12;fontColor=#000000;align=center;" vertex="1" parent="AG6ojbgLePJ8lH-RuyDG-1">
          <mxGeometry x="520" y="300" width="20" height="20" as="geometry" />
        </mxCell>
        <mxCell id="55LUZK9bKvVkk8YtQMWV-62" value="&lt;font style=&quot;font-size: 12px;&quot;&gt;Teachers&lt;br style=&quot;font-size: 12px;&quot;&gt;&lt;/font&gt;" style="shape=image;html=1;verticalAlign=top;verticalLabelPosition=bottom;labelBackgroundColor=none;imageAspect=0;aspect=fixed;image=https://cdn0.iconfinder.com/data/icons/elasto-online-store/26/00-ELASTOFONT-STORE-READY_user-128.png;shadow=0;strokeColor=#CC6600;strokeWidth=2;fillColor=none;fontSize=12;fontColor=#000000;align=center;" vertex="1" parent="AG6ojbgLePJ8lH-RuyDG-1">
          <mxGeometry x="330" y="320" width="20" height="20" as="geometry" />
        </mxCell>
        <mxCell id="55LUZK9bKvVkk8YtQMWV-63" value="&lt;font style=&quot;font-size: 12px;&quot;&gt;Tool&lt;br style=&quot;font-size: 12px;&quot;&gt;Devs&lt;br style=&quot;font-size: 12px;&quot;&gt;&lt;/font&gt;" style="shape=image;html=1;verticalAlign=top;verticalLabelPosition=bottom;labelBackgroundColor=none;imageAspect=0;aspect=fixed;image=https://cdn0.iconfinder.com/data/icons/elasto-online-store/26/00-ELASTOFONT-STORE-READY_user-128.png;shadow=0;strokeColor=#CC6600;strokeWidth=2;fillColor=none;fontSize=12;fontColor=#000000;align=center;" vertex="1" parent="AG6ojbgLePJ8lH-RuyDG-1">
          <mxGeometry x="574" y="405" width="20" height="20" as="geometry" />
        </mxCell>
        <mxCell id="55LUZK9bKvVkk8YtQMWV-65" value="&lt;font style=&quot;font-size: 12px;&quot;&gt;Competitors&lt;br style=&quot;font-size: 12px;&quot;&gt;&lt;/font&gt;" style="shape=image;html=1;verticalAlign=top;verticalLabelPosition=bottom;labelBackgroundColor=none;imageAspect=0;aspect=fixed;image=https://cdn0.iconfinder.com/data/icons/elasto-online-store/26/00-ELASTOFONT-STORE-READY_user-128.png;shadow=0;strokeColor=#CC6600;strokeWidth=2;fillColor=none;fontSize=12;fontColor=#000000;align=center;" vertex="1" parent="AG6ojbgLePJ8lH-RuyDG-1">
          <mxGeometry x="640" y="240" width="20" height="20" as="geometry" />
        </mxCell>
        <mxCell id="55LUZK9bKvVkk8YtQMWV-67" value="&lt;font style=&quot;font-size: 12px;&quot;&gt;Deputy&lt;br style=&quot;font-size: 12px;&quot;&gt;Secretary/&lt;br style=&quot;font-size: 12px;&quot;&gt;VP&lt;br style=&quot;font-size: 12px;&quot;&gt;&lt;/font&gt;" style="shape=image;html=1;verticalAlign=top;verticalLabelPosition=bottom;labelBackgroundColor=none;imageAspect=0;aspect=fixed;image=https://cdn0.iconfinder.com/data/icons/elasto-online-store/26/00-ELASTOFONT-STORE-READY_user-128.png;shadow=0;strokeColor=#CC6600;strokeWidth=2;fillColor=none;fontSize=12;fontColor=#000000;align=center;" vertex="1" parent="AG6ojbgLePJ8lH-RuyDG-1">
          <mxGeometry x="320" y="540" width="20" height="20" as="geometry" />
        </mxCell>
        <mxCell id="1hMV_P8PKeL6gi6si9hS-1" value="" style="line;strokeWidth=1;fillColor=none;align=left;verticalAlign=middle;spacingTop=-1;spacingLeft=3;spacingRight=3;rotatable=0;labelPosition=right;points=[];portConstraint=eastwest;fontSize=12;shadow=0;labelBackgroundColor=none;html=1;" vertex="1" parent="AG6ojbgLePJ8lH-RuyDG-1">
          <mxGeometry x="120" y="457" width="560" height="8" as="geometry" />
        </mxCell>
        <mxCell id="55LUZK9bKvVkk8YtQMWV-0" value="&lt;b style=&quot;font-size: 12px;&quot;&gt;Internal&lt;/b&gt;" style="rounded=1;align=center;fillColor=#F1F2F4;strokeColor=none;html=1;fontColor=#596780;fontSize=12;shadow=0;labelBackgroundColor=none;rotation=-90;" vertex="1" parent="AG6ojbgLePJ8lH-RuyDG-1">
          <mxGeometry x="70" y="670" width="120" height="20" as="geometry" />
        </mxCell>
        <mxCell id="55LUZK9bKvVkk8YtQMWV-4" value="&lt;b style=&quot;font-size: 12px;&quot;&gt;External&lt;/b&gt;" style="rounded=1;align=center;fillColor=#F1F2F4;strokeColor=none;html=1;fontColor=#596780;fontSize=12;shadow=0;labelBackgroundColor=none;rotation=-90;" vertex="1" parent="AG6ojbgLePJ8lH-RuyDG-1">
          <mxGeometry x="70" y="240" width="120" height="20" as="geometry" />
        </mxCell>
        <mxCell id="55LUZK9bKvVkk8YtQMWV-38" value="&lt;font style=&quot;font-size: 12px;&quot;&gt;Web&lt;br style=&quot;font-size: 12px;&quot;&gt;Services&lt;br style=&quot;font-size: 12px;&quot;&gt;&lt;/font&gt;" style="shape=image;html=1;verticalAlign=top;verticalLabelPosition=bottom;labelBackgroundColor=none;imageAspect=0;aspect=fixed;image=https://cdn0.iconfinder.com/data/icons/elasto-online-store/26/00-ELASTOFONT-STORE-READY_user-128.png;shadow=0;strokeColor=#CC6600;strokeWidth=2;fillColor=none;fontSize=12;fontColor=#000000;align=center;" vertex="1" parent="AG6ojbgLePJ8lH-RuyDG-1">
          <mxGeometry x="460" y="620" width="20" height="20" as="geometry" />
        </mxCell>
        <mxCell id="55LUZK9bKvVkk8YtQMWV-43" value="&lt;font style=&quot;font-size: 12px;&quot;&gt;Change&lt;br style=&quot;font-size: 12px;&quot;&gt;Control&lt;br style=&quot;font-size: 12px;&quot;&gt;&lt;/font&gt;" style="shape=image;html=1;verticalAlign=top;verticalLabelPosition=bottom;labelBackgroundColor=none;imageAspect=0;aspect=fixed;image=https://cdn0.iconfinder.com/data/icons/elasto-online-store/26/00-ELASTOFONT-STORE-READY_user-128.png;shadow=0;strokeColor=#CC6600;strokeWidth=2;fillColor=none;fontSize=12;fontColor=#000000;align=center;" vertex="1" parent="AG6ojbgLePJ8lH-RuyDG-1">
          <mxGeometry x="560" y="531" width="20" height="20" as="geometry" />
        </mxCell>
        <mxCell id="55LUZK9bKvVkk8YtQMWV-44" value="&lt;font style=&quot;font-size: 12px;&quot;&gt;Training&lt;br style=&quot;font-size: 12px;&quot;&gt;&lt;/font&gt;" style="shape=image;html=1;verticalAlign=top;verticalLabelPosition=bottom;labelBackgroundColor=none;imageAspect=0;aspect=fixed;image=https://cdn0.iconfinder.com/data/icons/elasto-online-store/26/00-ELASTOFONT-STORE-READY_user-128.png;shadow=0;strokeColor=#CC6600;strokeWidth=2;fillColor=none;fontSize=12;fontColor=#000000;align=center;" vertex="1" parent="AG6ojbgLePJ8lH-RuyDG-1">
          <mxGeometry x="230" y="540" width="20" height="20" as="geometry" />
        </mxCell>
        <mxCell id="55LUZK9bKvVkk8YtQMWV-48" value="&lt;font style=&quot;font-size: 12px;&quot;&gt;Testing&lt;br style=&quot;font-size: 12px;&quot;&gt;&lt;/font&gt;" style="shape=image;html=1;verticalAlign=top;verticalLabelPosition=bottom;labelBackgroundColor=none;imageAspect=0;aspect=fixed;image=https://cdn0.iconfinder.com/data/icons/elasto-online-store/26/00-ELASTOFONT-STORE-READY_user-128.png;shadow=0;strokeColor=#CC6600;strokeWidth=2;fillColor=none;fontSize=12;fontColor=#000000;align=center;" vertex="1" parent="AG6ojbgLePJ8lH-RuyDG-1">
          <mxGeometry x="270" y="589.5" width="20" height="20" as="geometry" />
        </mxCell>
        <mxCell id="55LUZK9bKvVkk8YtQMWV-49" value="&lt;font style=&quot;font-size: 12px;&quot;&gt;Cloud&lt;br style=&quot;font-size: 12px;&quot;&gt;Services&lt;br style=&quot;font-size: 12px;&quot;&gt;&lt;/font&gt;" style="shape=image;html=1;verticalAlign=top;verticalLabelPosition=bottom;labelBackgroundColor=none;imageAspect=0;aspect=fixed;image=https://cdn0.iconfinder.com/data/icons/elasto-online-store/26/00-ELASTOFONT-STORE-READY_user-128.png;shadow=0;strokeColor=#CC6600;strokeWidth=2;fillColor=none;fontSize=12;fontColor=#000000;align=center;" vertex="1" parent="AG6ojbgLePJ8lH-RuyDG-1">
          <mxGeometry x="380" y="630" width="20" height="20" as="geometry" />
        </mxCell>
        <mxCell id="55LUZK9bKvVkk8YtQMWV-55" value="&lt;font style=&quot;font-size: 12px;&quot;&gt;Security&lt;br style=&quot;font-size: 12px;&quot;&gt;&lt;/font&gt;" style="shape=image;html=1;verticalAlign=top;verticalLabelPosition=bottom;labelBackgroundColor=none;imageAspect=0;aspect=fixed;image=https://cdn0.iconfinder.com/data/icons/elasto-online-store/26/00-ELASTOFONT-STORE-READY_user-128.png;shadow=0;strokeColor=#CC6600;strokeWidth=2;fillColor=none;fontSize=12;fontColor=#000000;align=center;" vertex="1" parent="AG6ojbgLePJ8lH-RuyDG-1">
          <mxGeometry x="510" y="589.5" width="20" height="20" as="geometry" />
        </mxCell>
        <mxCell id="ETI6sSULLuqo6MPz5FEn-0" value="&lt;font style=&quot;font-size: 12px&quot;&gt;OnPrem&lt;br&gt;(Infrastructure)&lt;br&gt;Operations&lt;br style=&quot;font-size: 12px&quot;&gt;Services&lt;br style=&quot;font-size: 12px&quot;&gt;&lt;/font&gt;" style="shape=image;html=1;verticalAlign=top;verticalLabelPosition=bottom;labelBackgroundColor=none;imageAspect=0;aspect=fixed;image=https://cdn0.iconfinder.com/data/icons/elasto-online-store/26/00-ELASTOFONT-STORE-READY_user-128.png;shadow=0;strokeColor=#CC6600;strokeWidth=2;fillColor=none;fontSize=12;fontColor=#000000;align=center;" vertex="1" parent="AG6ojbgLePJ8lH-RuyDG-1">
          <mxGeometry x="320" y="630" width="20" height="20" as="geometry" />
        </mxCell>
        <mxCell id="NZA3RxuKYHD427RJL7i8-0" value="&lt;font style=&quot;font-size: 12px&quot;&gt;Regional&amp;nbsp;&lt;br&gt;Directors&lt;br style=&quot;font-size: 12px&quot;&gt;&lt;/font&gt;" style="shape=image;html=1;verticalAlign=top;verticalLabelPosition=bottom;labelBackgroundColor=none;imageAspect=0;aspect=fixed;image=https://cdn0.iconfinder.com/data/icons/elasto-online-store/26/00-ELASTOFONT-STORE-READY_user-128.png;shadow=0;strokeColor=#CC6600;strokeWidth=2;fillColor=none;fontSize=12;fontColor=#000000;align=center;" vertex="1" parent="AG6ojbgLePJ8lH-RuyDG-1">
          <mxGeometry x="350" y="260" width="20" height="20" as="geometry" />
        </mxCell>
        <mxCell id="R1f23arfC69eGrNI_NES-0" value="Title/Diagram" parent="AG6ojbgLePJ8lH-RuyDG-0" />
        <mxCell id="R1f23arfC69eGrNI_NES-1" value="&lt;font style=&quot;font-size: 12px&quot;&gt;&lt;span&gt;Diagram: &lt;/span&gt;System Context - Stakeholders Type Map&lt;/font&gt;" style="text;strokeColor=none;fillColor=none;html=1;fontSize=12;fontStyle=2;verticalAlign=middle;align=left;shadow=0;glass=0;comic=0;opacity=30;fontColor=#808080;" vertex="1" parent="R1f23arfC69eGrNI_NES-0">
          <mxGeometry x="120" y="780" width="520" height="20" as="geometry" />
        </mxCell>
      </root>
    </mxGraphModel>
  </diagram>
  <diagram id="L3lJipPcEUNtGVVh9hjP" name="System Context/Constraints/Agreements/Principles/Categories">
    <mxGraphModel dx="1886" dy="818" grid="1" gridSize="10" guides="1" tooltips="1" connect="1" arrows="1" fold="1" page="1" pageScale="1" pageWidth="827" pageHeight="1169" math="0" shadow="0">
      <root>
        <mxCell id="ywRExsjG84Ru5Ja8rlE9-0" />
        <mxCell id="eMEh0mS3tXG04RpdwaX1-3" value="Diagram" style="" parent="ywRExsjG84Ru5Ja8rlE9-0" />
        <mxCell id="0VUtr1JfN3488HUorTQe-3" value="Enterprise" style="rounded=0;whiteSpace=wrap;html=1;comic=0;strokeColor=#000000;fillColor=none;fontSize=11;align=center;fontColor=#000000;recursiveResize=0;container=1;collapsible=0;arcSize=12;" parent="eMEh0mS3tXG04RpdwaX1-3" vertex="1">
          <mxGeometry x="119.99999999999989" y="200" width="80" height="40" as="geometry" />
        </mxCell>
        <mxCell id="0VUtr1JfN3488HUorTQe-4" value="Information" style="rounded=0;whiteSpace=wrap;html=1;comic=0;strokeColor=#000000;fillColor=none;fontSize=11;align=center;fontColor=#000000;recursiveResize=0;container=1;collapsible=0;arcSize=12;" parent="eMEh0mS3tXG04RpdwaX1-3" vertex="1">
          <mxGeometry x="239.9999999999999" y="200" width="80" height="40" as="geometry" />
        </mxCell>
        <mxCell id="0VUtr1JfN3488HUorTQe-5" value="Security" style="rounded=0;whiteSpace=wrap;html=1;comic=0;strokeColor=#000000;fillColor=none;fontSize=11;align=center;fontColor=#000000;recursiveResize=0;container=1;collapsible=0;arcSize=12;" parent="eMEh0mS3tXG04RpdwaX1-3" vertex="1">
          <mxGeometry x="119.99999999999989" y="280" width="80" height="40" as="geometry" />
        </mxCell>
        <mxCell id="0VUtr1JfN3488HUorTQe-6" value="Technology" style="rounded=0;whiteSpace=wrap;html=1;comic=0;strokeColor=#000000;fillColor=none;fontSize=11;align=center;fontColor=#000000;recursiveResize=0;container=1;collapsible=0;arcSize=12;" parent="eMEh0mS3tXG04RpdwaX1-3" vertex="1">
          <mxGeometry x="479.9999999999999" y="280" width="80" height="40" as="geometry" />
        </mxCell>
        <mxCell id="0VUtr1JfN3488HUorTQe-8" value="Integration" style="rounded=0;whiteSpace=wrap;html=1;comic=0;strokeColor=#000000;fillColor=none;fontSize=11;align=center;fontColor=#000000;recursiveResize=0;container=1;collapsible=0;arcSize=12;" parent="eMEh0mS3tXG04RpdwaX1-3" vertex="1">
          <mxGeometry x="359.9999999999999" y="280" width="80" height="40" as="geometry" />
        </mxCell>
        <mxCell id="0VUtr1JfN3488HUorTQe-15" style="edgeStyle=orthogonalEdgeStyle;rounded=1;orthogonalLoop=1;jettySize=auto;html=1;entryX=0.5;entryY=0;entryDx=0;entryDy=0;startArrow=none;startFill=0;endArrow=none;endFill=0;strokeColor=#666666;fontSize=12;fontColor=#808080;" parent="eMEh0mS3tXG04RpdwaX1-3" source="0VUtr1JfN3488HUorTQe-9" target="0VUtr1JfN3488HUorTQe-5" edge="1">
          <mxGeometry relative="1" as="geometry">
            <Array as="points">
              <mxPoint x="400" y="260" />
              <mxPoint x="160" y="260" />
            </Array>
          </mxGeometry>
        </mxCell>
        <mxCell id="0VUtr1JfN3488HUorTQe-16" style="edgeStyle=orthogonalEdgeStyle;rounded=1;orthogonalLoop=1;jettySize=auto;html=1;entryX=0.5;entryY=0;entryDx=0;entryDy=0;startArrow=none;startFill=0;endArrow=none;endFill=0;strokeColor=#666666;fontSize=12;fontColor=#808080;" parent="eMEh0mS3tXG04RpdwaX1-3" source="0VUtr1JfN3488HUorTQe-9" target="0VUtr1JfN3488HUorTQe-6" edge="1">
          <mxGeometry relative="1" as="geometry">
            <Array as="points">
              <mxPoint x="400" y="260" />
              <mxPoint x="520" y="260" />
            </Array>
          </mxGeometry>
        </mxCell>
        <mxCell id="0VUtr1JfN3488HUorTQe-17" style="edgeStyle=orthogonalEdgeStyle;rounded=1;orthogonalLoop=1;jettySize=auto;html=1;entryX=0.5;entryY=0;entryDx=0;entryDy=0;startArrow=none;startFill=0;endArrow=none;endFill=0;strokeColor=#666666;fontSize=12;fontColor=#808080;" parent="eMEh0mS3tXG04RpdwaX1-3" source="0VUtr1JfN3488HUorTQe-9" target="0VUtr1JfN3488HUorTQe-8" edge="1">
          <mxGeometry relative="1" as="geometry" />
        </mxCell>
        <mxCell id="0VUtr1JfN3488HUorTQe-18" style="edgeStyle=orthogonalEdgeStyle;rounded=1;orthogonalLoop=1;jettySize=auto;html=1;entryX=0.5;entryY=0;entryDx=0;entryDy=0;startArrow=none;startFill=0;endArrow=none;endFill=0;strokeColor=#666666;fontSize=12;fontColor=#808080;" parent="eMEh0mS3tXG04RpdwaX1-3" source="0VUtr1JfN3488HUorTQe-9" target="0VUtr1JfN3488HUorTQe-11" edge="1">
          <mxGeometry relative="1" as="geometry">
            <Array as="points">
              <mxPoint x="400" y="260" />
              <mxPoint x="640" y="260" />
            </Array>
          </mxGeometry>
        </mxCell>
        <mxCell id="0VUtr1JfN3488HUorTQe-19" style="edgeStyle=orthogonalEdgeStyle;rounded=1;orthogonalLoop=1;jettySize=auto;html=1;startArrow=none;startFill=0;endArrow=none;endFill=0;strokeColor=#666666;fontSize=12;fontColor=#808080;entryX=0.5;entryY=0;entryDx=0;entryDy=0;" parent="eMEh0mS3tXG04RpdwaX1-3" source="0VUtr1JfN3488HUorTQe-9" target="0VUtr1JfN3488HUorTQe-14" edge="1">
          <mxGeometry relative="1" as="geometry">
            <Array as="points">
              <mxPoint x="400" y="260" />
              <mxPoint x="280" y="260" />
            </Array>
          </mxGeometry>
        </mxCell>
        <mxCell id="0VUtr1JfN3488HUorTQe-9" value="Architecture" style="rounded=0;whiteSpace=wrap;html=1;comic=0;strokeColor=#000000;fillColor=none;fontSize=11;align=center;fontColor=#000000;recursiveResize=0;container=1;collapsible=0;arcSize=12;" parent="eMEh0mS3tXG04RpdwaX1-3" vertex="1">
          <mxGeometry x="359.9999999999999" y="200" width="80" height="40" as="geometry" />
        </mxCell>
        <mxCell id="0VUtr1JfN3488HUorTQe-11" value="Usability" style="rounded=0;whiteSpace=wrap;html=1;comic=0;strokeColor=#000000;fillColor=none;fontSize=11;align=center;fontColor=#000000;recursiveResize=0;container=1;collapsible=0;arcSize=12;" parent="eMEh0mS3tXG04RpdwaX1-3" vertex="1">
          <mxGeometry x="599.9999999999999" y="280" width="80" height="40" as="geometry" />
        </mxCell>
        <mxCell id="0VUtr1JfN3488HUorTQe-13" value="Delivery" style="rounded=0;whiteSpace=wrap;html=1;comic=0;strokeColor=#000000;fillColor=none;fontSize=11;align=center;fontColor=#000000;recursiveResize=0;container=1;collapsible=0;arcSize=12;" parent="eMEh0mS3tXG04RpdwaX1-3" vertex="1">
          <mxGeometry x="599.9999999999999" y="200" width="80" height="40" as="geometry" />
        </mxCell>
        <mxCell id="0VUtr1JfN3488HUorTQe-14" value="Accessibility" style="rounded=0;whiteSpace=wrap;html=1;comic=0;strokeColor=#000000;fillColor=none;fontSize=11;align=center;fontColor=#000000;recursiveResize=0;container=1;collapsible=0;arcSize=12;" parent="eMEh0mS3tXG04RpdwaX1-3" vertex="1">
          <mxGeometry x="239.9999999999999" y="280" width="80" height="40" as="geometry" />
        </mxCell>
        <mxCell id="RRgW2A3pC9T4CHnNuHNT-1" value="Risk" style="rounded=0;whiteSpace=wrap;html=1;comic=0;strokeColor=#000000;fillColor=none;fontSize=11;align=center;fontColor=#000000;recursiveResize=0;container=1;collapsible=0;arcSize=12;" parent="eMEh0mS3tXG04RpdwaX1-3" vertex="1">
          <mxGeometry x="479.9999999999999" y="200" width="80" height="40" as="geometry" />
        </mxCell>
        <mxCell id="8WLEc2qEZpB5nz4jEDVl-0" value="Title/Diagram" parent="ywRExsjG84Ru5Ja8rlE9-0" />
        <mxCell id="8WLEc2qEZpB5nz4jEDVl-1" value="&lt;font style=&quot;font-size: 12px ; font-weight: normal&quot;&gt;&lt;i&gt;&lt;span&gt;Diagram: System Context -&amp;nbsp;&lt;/span&gt;Constraints - Agreements - Principles - Categories&lt;/i&gt;&lt;/font&gt;" style="text;strokeColor=none;fillColor=none;html=1;fontSize=12;fontStyle=1;verticalAlign=middle;align=left;shadow=0;glass=0;comic=0;opacity=30;fontColor=#808080;" parent="8WLEc2qEZpB5nz4jEDVl-0" vertex="1">
          <mxGeometry x="120" y="340" width="520" height="30" as="geometry" />
        </mxCell>
      </root>
    </mxGraphModel>
  </diagram>
  <diagram id="VVXky7Y7QHrBYCJgE72v" name="System Context/Constraints/Agreements/Principles">
    <mxGraphModel dx="1886" dy="818" grid="1" gridSize="10" guides="1" tooltips="1" connect="1" arrows="1" fold="1" page="1" pageScale="1" pageWidth="827" pageHeight="1169" math="0" shadow="0">
      <root>
        <mxCell id="daTf82J9nSMzatya0Rs_-0" />
        <mxCell id="4nBKeMRYWjy86_-DUyZd-8" value="Diagram" parent="daTf82J9nSMzatya0Rs_-0" />
        <mxCell id="UjICZcTLZTMSa7xMXU2o-0" value="Enterprise Architecture Principles" style="rounded=1;whiteSpace=wrap;html=1;strokeColor=#666666;strokeWidth=1;fillColor=none;dashed=1;verticalAlign=top;align=left;spacingLeft=4;spacing=0;spacingTop=-5;fontColor=#666666;arcSize=16;absoluteArcSize=1;collapsible=0;container=1;recursiveResize=0;fontSize=12;labelBackgroundColor=none;horizontal=0;fontStyle=1" parent="4nBKeMRYWjy86_-DUyZd-8" vertex="1">
          <mxGeometry x="120" y="190" width="560" height="80" as="geometry" />
        </mxCell>
        <mxCell id="j1ANdiMcMITczx286Uaj-0" value="Sector First&lt;br style=&quot;font-size: 12px;&quot;&gt;Enablement" style="rounded=0;whiteSpace=wrap;html=1;shadow=0;glass=0;comic=0;strokeColor=#000000;fillColor=none;fontSize=12;align=center;fontColor=#000000;recursiveResize=0;container=1;collapsible=0;overflow=fill;" parent="UjICZcTLZTMSa7xMXU2o-0" vertex="1">
          <mxGeometry x="50" y="10" width="80" height="40" as="geometry" />
        </mxCell>
        <mxCell id="j1ANdiMcMITczx286Uaj-1" value="&lt;span style=&quot;text-align: left; white-space: nowrap; font-size: 11px;&quot;&gt;Open Cloud, &lt;br&gt;Interfaces, Data, &lt;br&gt;Source &amp;amp; Svcs&lt;/span&gt;" style="rounded=0;whiteSpace=wrap;html=1;shadow=0;glass=0;comic=0;strokeColor=#000000;fillColor=none;fontSize=12;align=center;fontColor=#000000;recursiveResize=0;container=1;collapsible=0;overflow=fill;" parent="UjICZcTLZTMSa7xMXU2o-0" vertex="1">
          <mxGeometry x="140" y="10" width="80" height="40" as="geometry" />
        </mxCell>
        <mxCell id="j1ANdiMcMITczx286Uaj-3" value="&lt;span style=&quot;text-align: left; white-space: nowrap; font-size: 12px;&quot;&gt;Secure, &lt;br&gt;Compliant and&amp;nbsp;&lt;br style=&quot;font-size: 12px&quot;&gt;Accreditable&lt;/span&gt;" style="rounded=0;whiteSpace=wrap;html=1;shadow=0;glass=0;comic=0;strokeColor=#000000;fillColor=none;fontSize=12;align=center;fontColor=#000000;recursiveResize=0;container=1;collapsible=0;overflow=fill;" parent="UjICZcTLZTMSa7xMXU2o-0" vertex="1">
          <mxGeometry x="230" y="10" width="80" height="40" as="geometry" />
        </mxCell>
        <mxCell id="j1ANdiMcMITczx286Uaj-4" value="&lt;span style=&quot;text-align: left; white-space: nowrap; font-size: 12px;&quot;&gt;Collaborative &lt;br style=&quot;font-size: 12px&quot;&gt;Iterative, Swift &lt;br style=&quot;font-size: 12px&quot;&gt;Value Delivery&lt;/span&gt;" style="rounded=0;whiteSpace=wrap;html=1;shadow=0;glass=0;comic=0;strokeColor=#000000;fillColor=none;fontSize=12;align=center;fontColor=#000000;recursiveResize=0;container=1;collapsible=0;overflow=fill;" parent="UjICZcTLZTMSa7xMXU2o-0" vertex="1">
          <mxGeometry x="330" y="10" width="80" height="40" as="geometry" />
        </mxCell>
        <mxCell id="6f96ubNpaHUbsoNvDcf1-0" value="&lt;div style=&quot;text-align: left&quot;&gt;&lt;font style=&quot;font-size: 11px&quot;&gt;&lt;span style=&quot;white-space: nowrap&quot;&gt;Agreed Evolving&lt;br&gt;Protocols &lt;br&gt;before Product&lt;/span&gt;&lt;/font&gt;&lt;/div&gt;" style="rounded=0;whiteSpace=wrap;html=1;shadow=0;glass=0;comic=0;strokeColor=#000000;fillColor=none;fontSize=12;align=center;fontColor=#000000;recursiveResize=0;container=1;collapsible=0;overflow=fill;" parent="UjICZcTLZTMSa7xMXU2o-0" vertex="1">
          <mxGeometry x="420" y="10" width="80" height="40" as="geometry" />
        </mxCell>
        <UserObject label="Digital Standards" link="https://www.digital.govt.nz/standards-and-guidance/technology-and-architecture/government-enterprise-architecture/government-digital-standards-catalogue/digital-standards-principles/" id="j1ANdiMcMITczx286Uaj-5">
          <mxCell style="rounded=1;whiteSpace=wrap;html=1;strokeColor=#666666;strokeWidth=1;fillColor=none;dashed=1;verticalAlign=top;align=left;spacingLeft=4;spacing=0;spacingTop=-5;fontColor=#666666;arcSize=16;absoluteArcSize=1;collapsible=0;container=1;recursiveResize=0;fontSize=12;labelBackgroundColor=none;horizontal=0;fontStyle=1" parent="4nBKeMRYWjy86_-DUyZd-8" vertex="1">
            <mxGeometry x="120" y="400" width="560" height="110" as="geometry" />
          </mxCell>
        </UserObject>
        <mxCell id="25uwotHoj0J4F6H2fL_D-1" value="User Centric" style="rounded=0;whiteSpace=wrap;html=1;shadow=0;glass=0;comic=0;strokeColor=#000000;fillColor=none;fontSize=12;align=center;fontColor=#000000;recursiveResize=0;container=1;collapsible=0;overflow=fill;" parent="j1ANdiMcMITczx286Uaj-5" vertex="1">
          <mxGeometry x="50" y="10" width="80" height="40" as="geometry" />
        </mxCell>
        <mxCell id="25uwotHoj0J4F6H2fL_D-2" value="Open and Transparent" style="rounded=0;whiteSpace=wrap;html=1;shadow=0;glass=0;comic=0;strokeColor=#000000;fillColor=none;fontSize=12;align=center;fontColor=#000000;recursiveResize=0;container=1;collapsible=0;overflow=fill;" parent="j1ANdiMcMITczx286Uaj-5" vertex="1">
          <mxGeometry x="140" y="10" width="80" height="40" as="geometry" />
        </mxCell>
        <mxCell id="25uwotHoj0J4F6H2fL_D-0" value="Flexible" style="rounded=0;whiteSpace=wrap;html=1;shadow=0;glass=0;comic=0;strokeColor=#000000;fillColor=none;fontSize=12;align=center;fontColor=#000000;recursiveResize=0;container=1;collapsible=0;overflow=fill;" parent="j1ANdiMcMITczx286Uaj-5" vertex="1">
          <mxGeometry x="230" y="10" width="80" height="40" as="geometry" />
        </mxCell>
        <mxCell id="25uwotHoj0J4F6H2fL_D-3" value="Vendor Independent" style="rounded=0;whiteSpace=wrap;html=1;shadow=0;glass=0;comic=0;strokeColor=#000000;fillColor=none;fontSize=12;align=center;fontColor=#000000;recursiveResize=0;container=1;collapsible=0;overflow=fill;" parent="j1ANdiMcMITczx286Uaj-5" vertex="1">
          <mxGeometry x="320" y="10" width="80" height="40" as="geometry" />
        </mxCell>
        <mxCell id="25uwotHoj0J4F6H2fL_D-4" value="Pragmatic" style="rounded=0;whiteSpace=wrap;html=1;shadow=0;glass=0;comic=0;strokeColor=#000000;fillColor=none;fontSize=12;align=center;fontColor=#000000;recursiveResize=0;container=1;collapsible=0;overflow=fill;" parent="j1ANdiMcMITczx286Uaj-5" vertex="1">
          <mxGeometry x="50" y="60" width="80" height="40" as="geometry" />
        </mxCell>
        <mxCell id="25uwotHoj0J4F6H2fL_D-5" value="Well Informed" style="rounded=0;whiteSpace=wrap;html=1;shadow=0;glass=0;comic=0;strokeColor=#000000;fillColor=none;fontSize=12;align=center;fontColor=#000000;recursiveResize=0;container=1;collapsible=0;overflow=fill;" parent="j1ANdiMcMITczx286Uaj-5" vertex="1">
          <mxGeometry x="140" y="60" width="80" height="40" as="geometry" />
        </mxCell>
        <mxCell id="25uwotHoj0J4F6H2fL_D-6" value="Standards Compliance" style="rounded=0;whiteSpace=wrap;html=1;shadow=0;glass=0;comic=0;strokeColor=#000000;fillColor=none;fontSize=12;align=center;fontColor=#000000;recursiveResize=0;container=1;collapsible=0;overflow=fill;" parent="j1ANdiMcMITczx286Uaj-5" vertex="1">
          <mxGeometry x="230" y="60" width="80" height="40" as="geometry" />
        </mxCell>
        <mxCell id="25uwotHoj0J4F6H2fL_D-7" value="International First" style="rounded=0;whiteSpace=wrap;html=1;shadow=0;glass=0;comic=0;strokeColor=#000000;fillColor=none;fontSize=12;align=center;fontColor=#000000;recursiveResize=0;container=1;collapsible=0;overflow=fill;" parent="j1ANdiMcMITczx286Uaj-5" vertex="1">
          <mxGeometry x="320" y="60" width="80" height="40" as="geometry" />
        </mxCell>
        <UserObject label="Digital Service Design&amp;nbsp;Standards" link="https://www.digital.govt.nz/standards-and-guidance/digital-service-design-standard/" id="QUJlhDWVgiXLjmnl-b-k-0">
          <mxCell style="rounded=1;whiteSpace=wrap;html=1;strokeColor=#666666;strokeWidth=1;fillColor=none;dashed=1;verticalAlign=top;align=left;spacingLeft=4;spacing=0;spacingTop=-5;fontColor=#666666;arcSize=16;absoluteArcSize=1;collapsible=0;container=1;recursiveResize=0;fontSize=12;labelBackgroundColor=none;horizontal=0;fontStyle=1" parent="4nBKeMRYWjy86_-DUyZd-8" vertex="1">
            <mxGeometry x="120" y="520" width="560" height="160" as="geometry" />
          </mxCell>
        </UserObject>
        <mxCell id="qAGcx1NTyJdW2GRDm8xM-1" value="Be Clear about Intent to Change and Why" style="rounded=0;whiteSpace=wrap;html=1;shadow=0;glass=0;comic=0;strokeColor=#000000;fillColor=none;fontSize=12;align=center;fontColor=#000000;recursiveResize=0;container=1;collapsible=0;overflow=fill;" parent="QUJlhDWVgiXLjmnl-b-k-0" vertex="1">
          <mxGeometry x="170" y="10" width="120" height="40" as="geometry" />
        </mxCell>
        <mxCell id="qAGcx1NTyJdW2GRDm8xM-2" value="Integrate Security and Privacy from the Start" style="rounded=0;whiteSpace=wrap;html=1;shadow=0;glass=0;comic=0;strokeColor=#000000;fillColor=none;fontSize=12;align=center;fontColor=#000000;recursiveResize=0;container=1;collapsible=0;overflow=fill;" parent="QUJlhDWVgiXLjmnl-b-k-0" vertex="1">
          <mxGeometry x="300" y="10" width="120" height="40" as="geometry" />
        </mxCell>
        <mxCell id="qAGcx1NTyJdW2GRDm8xM-3" value="Be Inclusive, provide Ethical &amp;amp; Equitable, access" style="rounded=0;whiteSpace=wrap;html=1;shadow=0;glass=0;comic=0;strokeColor=#000000;fillColor=none;fontSize=12;align=center;fontColor=#000000;recursiveResize=0;container=1;collapsible=0;overflow=fill;" parent="QUJlhDWVgiXLjmnl-b-k-0" vertex="1">
          <mxGeometry x="430" y="10" width="120" height="40" as="geometry" />
        </mxCell>
        <mxCell id="qAGcx1NTyJdW2GRDm8xM-4" value="Design &amp;amp; Resource for the Full Lifetime" style="rounded=0;whiteSpace=wrap;html=1;shadow=0;glass=0;comic=0;strokeColor=#000000;fillColor=none;fontSize=12;align=center;fontColor=#000000;recursiveResize=0;container=1;collapsible=0;overflow=fill;" parent="QUJlhDWVgiXLjmnl-b-k-0" vertex="1">
          <mxGeometry x="50" y="60" width="110" height="40" as="geometry" />
        </mxCell>
        <mxCell id="qAGcx1NTyJdW2GRDm8xM-5" value="Create/Empower interdisciplinary Team" style="rounded=0;whiteSpace=wrap;html=1;shadow=0;glass=0;comic=0;strokeColor=#000000;fillColor=none;fontSize=12;align=center;fontColor=#000000;recursiveResize=0;container=1;collapsible=0;overflow=fill;" parent="QUJlhDWVgiXLjmnl-b-k-0" vertex="1">
          <mxGeometry x="170" y="60" width="120" height="40" as="geometry" />
        </mxCell>
        <mxCell id="qAGcx1NTyJdW2GRDm8xM-6" value="Work in the Open" style="rounded=0;whiteSpace=wrap;html=1;shadow=0;glass=0;comic=0;strokeColor=#000000;fillColor=none;fontSize=12;align=center;fontColor=#000000;recursiveResize=0;container=1;collapsible=0;overflow=fill;" parent="QUJlhDWVgiXLjmnl-b-k-0" vertex="1">
          <mxGeometry x="300" y="60" width="120" height="40" as="geometry" />
        </mxCell>
        <mxCell id="qAGcx1NTyJdW2GRDm8xM-7" value="Collaborate Widely, Reuse, &amp;amp; Provide for others" style="rounded=0;whiteSpace=wrap;html=1;shadow=0;glass=0;comic=0;strokeColor=#000000;fillColor=none;fontSize=12;align=center;fontColor=#000000;recursiveResize=0;container=1;collapsible=0;overflow=fill;" parent="QUJlhDWVgiXLjmnl-b-k-0" vertex="1">
          <mxGeometry x="430" y="60" width="120" height="40" as="geometry" />
        </mxCell>
        <mxCell id="qAGcx1NTyJdW2GRDm8xM-8" value="Design for our constitution &amp;amp; culture" style="rounded=0;whiteSpace=wrap;html=1;shadow=0;glass=0;comic=0;strokeColor=#000000;fillColor=none;fontSize=12;align=center;fontColor=#000000;recursiveResize=0;container=1;collapsible=0;overflow=fill;" parent="QUJlhDWVgiXLjmnl-b-k-0" vertex="1">
          <mxGeometry x="50" y="110" width="110" height="40" as="geometry" />
        </mxCell>
        <mxCell id="qAGcx1NTyJdW2GRDm8xM-9" value="Use Digital to enhance Service Delivery" style="rounded=0;whiteSpace=wrap;html=1;shadow=0;glass=0;comic=0;strokeColor=#000000;fillColor=none;fontSize=12;align=center;fontColor=#000000;recursiveResize=0;container=1;collapsible=0;overflow=fill;" parent="QUJlhDWVgiXLjmnl-b-k-0" vertex="1">
          <mxGeometry x="170" y="110" width="120" height="40" as="geometry" />
        </mxCell>
        <mxCell id="qAGcx1NTyJdW2GRDm8xM-10" value="Be a good data and information steward" style="rounded=0;whiteSpace=wrap;html=1;shadow=0;glass=0;comic=0;strokeColor=#000000;fillColor=none;fontSize=12;align=center;fontColor=#000000;recursiveResize=0;container=1;collapsible=0;overflow=fill;" parent="QUJlhDWVgiXLjmnl-b-k-0" vertex="1">
          <mxGeometry x="300" y="110" width="120" height="40" as="geometry" />
        </mxCell>
        <mxCell id="qAGcx1NTyJdW2GRDm8xM-11" value="Be transparent and accountable to the public" style="rounded=0;whiteSpace=wrap;html=1;shadow=0;glass=0;comic=0;strokeColor=#000000;fillColor=none;fontSize=12;align=center;fontColor=#000000;recursiveResize=0;container=1;collapsible=0;overflow=fill;" parent="QUJlhDWVgiXLjmnl-b-k-0" vertex="1">
          <mxGeometry x="430" y="110" width="120" height="40" as="geometry" />
        </mxCell>
        <mxCell id="qAGcx1NTyJdW2GRDm8xM-0" value="Identify Users, Understand their Needs" style="rounded=0;whiteSpace=wrap;html=1;shadow=0;glass=0;comic=0;strokeColor=#000000;fillColor=none;fontSize=12;align=center;fontColor=#000000;recursiveResize=0;container=1;collapsible=0;overflow=fill;" parent="QUJlhDWVgiXLjmnl-b-k-0" vertex="1">
          <mxGeometry x="50" y="10" width="110" height="40" as="geometry" />
        </mxCell>
        <UserObject label="Digital Data and Information Standards" link="https://www.data.govt.nz/manage-data/policies/new-zealand-data-and-information-management-principles/" id="kTJ6TZ1ukEPKJX5rb79O-0">
          <mxCell style="rounded=1;whiteSpace=wrap;html=1;strokeColor=#666666;strokeWidth=1;fillColor=none;dashed=1;verticalAlign=top;align=left;spacingLeft=4;spacing=0;spacingTop=-5;fontColor=#666666;arcSize=16;absoluteArcSize=1;collapsible=0;container=1;recursiveResize=0;fontSize=12;labelBackgroundColor=none;horizontal=0;fontStyle=1" parent="4nBKeMRYWjy86_-DUyZd-8" vertex="1">
            <mxGeometry x="120" y="690" width="560" height="110" as="geometry" />
          </mxCell>
        </UserObject>
        <mxCell id="4nBKeMRYWjy86_-DUyZd-1" value="Protected" style="rounded=0;whiteSpace=wrap;html=1;shadow=0;glass=0;comic=0;strokeColor=#000000;fillColor=none;fontSize=12;align=center;fontColor=#000000;recursiveResize=0;container=1;collapsible=0;overflow=fill;" parent="kTJ6TZ1ukEPKJX5rb79O-0" vertex="1">
          <mxGeometry x="140" y="10" width="80" height="40" as="geometry" />
        </mxCell>
        <mxCell id="4nBKeMRYWjy86_-DUyZd-2" value="&lt;h3 style=&quot;box-sizing: border-box; font-family: &amp;quot;fira sans&amp;quot;, helvetica, arial, sans-serif; font-weight: 500; line-height: 1.1; font-size: 12px;&quot;&gt;&lt;font style=&quot;font-size: 12px&quot;&gt;readily available&lt;/font&gt;&lt;/h3&gt;" style="rounded=0;whiteSpace=wrap;html=1;shadow=0;glass=0;comic=0;strokeColor=#000000;fillColor=none;fontSize=12;align=center;fontColor=#000000;recursiveResize=0;container=1;collapsible=0;overflow=fill;verticalAlign=middle;horizontal=1;" parent="kTJ6TZ1ukEPKJX5rb79O-0" vertex="1">
          <mxGeometry x="230" y="10" width="80" height="40" as="geometry" />
        </mxCell>
        <mxCell id="4nBKeMRYWjy86_-DUyZd-3" value="&lt;h3 style=&quot;box-sizing: border-box; font-family: &amp;quot;fira sans&amp;quot;, helvetica, arial, sans-serif; font-weight: 500; line-height: 1.1; font-size: 12px;&quot;&gt;trusted and authoritative&lt;/h3&gt;" style="rounded=0;whiteSpace=wrap;html=1;shadow=0;glass=0;comic=0;strokeColor=#000000;fillColor=none;fontSize=12;align=center;fontColor=#000000;recursiveResize=0;container=1;collapsible=0;overflow=fill;" parent="kTJ6TZ1ukEPKJX5rb79O-0" vertex="1">
          <mxGeometry x="320" y="10" width="80" height="40" as="geometry" />
        </mxCell>
        <mxCell id="4nBKeMRYWjy86_-DUyZd-4" value="&lt;h3 style=&quot;box-sizing: border-box; font-family: &amp;quot;fira sans&amp;quot;, helvetica, arial, sans-serif; font-weight: 500; line-height: 1.1; font-size: 12px;&quot;&gt;well managed&lt;/h3&gt;" style="rounded=0;whiteSpace=wrap;html=1;shadow=0;glass=0;comic=0;strokeColor=#000000;fillColor=none;fontSize=12;align=center;fontColor=#000000;recursiveResize=0;container=1;collapsible=0;overflow=fill;" parent="kTJ6TZ1ukEPKJX5rb79O-0" vertex="1">
          <mxGeometry x="50" y="60" width="80" height="40" as="geometry" />
        </mxCell>
        <mxCell id="4nBKeMRYWjy86_-DUyZd-5" value="&lt;h3 style=&quot;box-sizing: border-box; font-family: &amp;quot;fira sans&amp;quot;, helvetica, arial, sans-serif; font-weight: 500; line-height: 1.1; font-size: 12px;&quot;&gt;reasonably priced&lt;/h3&gt;" style="rounded=0;whiteSpace=wrap;html=1;shadow=0;glass=0;comic=0;strokeColor=#000000;fillColor=none;fontSize=12;align=center;fontColor=#000000;recursiveResize=0;container=1;collapsible=0;overflow=fill;verticalAlign=middle;" parent="kTJ6TZ1ukEPKJX5rb79O-0" vertex="1">
          <mxGeometry x="140" y="60" width="80" height="40" as="geometry" />
        </mxCell>
        <mxCell id="4nBKeMRYWjy86_-DUyZd-6" value="&lt;h3 style=&quot;box-sizing: border-box; font-family: &amp;quot;fira sans&amp;quot;, helvetica, arial, sans-serif; font-weight: 500; line-height: 1.1; font-size: 12px;&quot;&gt;reusable&lt;/h3&gt;" style="rounded=0;whiteSpace=wrap;html=1;shadow=0;glass=0;comic=0;strokeColor=#000000;fillColor=none;fontSize=12;align=center;fontColor=#000000;recursiveResize=0;container=1;collapsible=0;overflow=fill;" parent="kTJ6TZ1ukEPKJX5rb79O-0" vertex="1">
          <mxGeometry x="230" y="60" width="80" height="40" as="geometry" />
        </mxCell>
        <mxCell id="4nBKeMRYWjy86_-DUyZd-0" value="Open" style="rounded=0;whiteSpace=wrap;html=1;shadow=0;glass=0;comic=0;strokeColor=#000000;fillColor=none;fontSize=12;align=center;fontColor=#000000;recursiveResize=0;container=1;collapsible=0;overflow=fill;" parent="kTJ6TZ1ukEPKJX5rb79O-0" vertex="1">
          <mxGeometry x="50" y="10" width="80" height="40" as="geometry" />
        </mxCell>
        <UserObject label="Privacy Principles" link="https://www.privacy.org.nz/news-and-publications/guidance-resources/a-quick-tour-of-the-privacy-principles/" id="mf-dzKTxDGDZydTHP_Ko-2">
          <mxCell style="rounded=1;whiteSpace=wrap;html=1;strokeColor=#666666;strokeWidth=1;fillColor=none;dashed=1;verticalAlign=top;align=left;spacingLeft=4;spacing=0;spacingTop=-5;fontColor=#666666;arcSize=16;absoluteArcSize=1;collapsible=0;container=1;recursiveResize=0;fontSize=12;labelBackgroundColor=none;horizontal=0;fontStyle=1" parent="4nBKeMRYWjy86_-DUyZd-8" vertex="1">
            <mxGeometry x="120" y="280" width="560" height="110" as="geometry" />
          </mxCell>
        </UserObject>
        <mxCell id="mf-dzKTxDGDZydTHP_Ko-10" value="collect PII only if lawful &amp;amp; necessary" style="rounded=0;whiteSpace=wrap;html=1;shadow=0;glass=0;comic=0;strokeColor=#000000;fillColor=none;fontSize=10;align=center;fontColor=#000000;recursiveResize=0;container=1;collapsible=0;overflow=fill;" parent="mf-dzKTxDGDZydTHP_Ko-2" vertex="1">
          <mxGeometry x="50" y="10" width="80" height="40" as="geometry" />
        </mxCell>
        <mxCell id="mf-dzKTxDGDZydTHP_Ko-11" value="Collect PII only from the person unless authorised" style="rounded=0;whiteSpace=wrap;html=1;shadow=0;glass=0;comic=0;strokeColor=#000000;fillColor=none;fontSize=10;align=center;fontColor=#000000;recursiveResize=0;container=1;collapsible=0;overflow=fill;" parent="mf-dzKTxDGDZydTHP_Ko-2" vertex="1">
          <mxGeometry x="140" y="10" width="80" height="40" as="geometry" />
        </mxCell>
        <mxCell id="mf-dzKTxDGDZydTHP_Ko-12" value="Reasonable steps to explain why, who, obligated, outcomes" style="rounded=0;whiteSpace=wrap;html=1;shadow=0;glass=0;comic=0;strokeColor=#000000;fillColor=none;fontSize=10;align=center;fontColor=#000000;recursiveResize=0;container=1;collapsible=0;overflow=fill;" parent="mf-dzKTxDGDZydTHP_Ko-2" vertex="1">
          <mxGeometry x="230" y="10" width="80" height="40" as="geometry" />
        </mxCell>
        <mxCell id="mf-dzKTxDGDZydTHP_Ko-13" value="PII must be collectd lawfully" style="rounded=0;whiteSpace=wrap;html=1;shadow=0;glass=0;comic=0;strokeColor=#000000;fillColor=none;fontSize=10;align=center;fontColor=#000000;recursiveResize=0;container=1;collapsible=0;overflow=fill;" parent="mf-dzKTxDGDZydTHP_Ko-2" vertex="1">
          <mxGeometry x="320" y="10" width="70" height="40" as="geometry" />
        </mxCell>
        <mxCell id="mf-dzKTxDGDZydTHP_Ko-14" value="PII must be protected from disclosure" style="rounded=0;whiteSpace=wrap;html=1;shadow=0;glass=0;comic=0;strokeColor=#000000;fillColor=none;fontSize=10;align=center;fontColor=#000000;recursiveResize=0;container=1;collapsible=0;overflow=fill;" parent="mf-dzKTxDGDZydTHP_Ko-2" vertex="1">
          <mxGeometry x="400" y="10" width="80" height="40" as="geometry" />
        </mxCell>
        <mxCell id="mf-dzKTxDGDZydTHP_Ko-16" value="Before use, take steps to ensure info is correct" style="rounded=0;whiteSpace=wrap;html=1;shadow=0;glass=0;comic=0;strokeColor=#000000;fillColor=none;fontSize=10;align=center;fontColor=#000000;recursiveResize=0;container=1;collapsible=0;overflow=fill;" parent="mf-dzKTxDGDZydTHP_Ko-2" vertex="1">
          <mxGeometry x="140" y="60" width="80" height="40" as="geometry" />
        </mxCell>
        <mxCell id="mf-dzKTxDGDZydTHP_Ko-17" value="Must not keep info longer than lawfully required" style="rounded=0;whiteSpace=wrap;html=1;shadow=0;glass=0;comic=0;strokeColor=#000000;fillColor=none;fontSize=10;align=center;fontColor=#000000;recursiveResize=0;container=1;collapsible=0;overflow=fill;" parent="mf-dzKTxDGDZydTHP_Ko-2" vertex="1">
          <mxGeometry x="230" y="60" width="80" height="40" as="geometry" />
        </mxCell>
        <mxCell id="mf-dzKTxDGDZydTHP_Ko-18" value="Disclosure of PII is limited." style="rounded=0;whiteSpace=wrap;html=1;shadow=0;glass=0;comic=0;strokeColor=#000000;fillColor=none;fontSize=10;align=center;fontColor=#000000;recursiveResize=0;container=1;collapsible=0;overflow=fill;" parent="mf-dzKTxDGDZydTHP_Ko-2" vertex="1">
          <mxGeometry x="400" y="60" width="80" height="40" as="geometry" />
        </mxCell>
        <mxCell id="mf-dzKTxDGDZydTHP_Ko-19" value="Do not use other agencies unique IDs." style="rounded=0;whiteSpace=wrap;html=1;shadow=0;glass=0;comic=0;strokeColor=#000000;fillColor=none;fontSize=10;align=center;fontColor=#000000;recursiveResize=0;container=1;collapsible=0;overflow=fill;" parent="mf-dzKTxDGDZydTHP_Ko-2" vertex="1">
          <mxGeometry x="490" y="60" width="60" height="40" as="geometry" />
        </mxCell>
        <mxCell id="mf-dzKTxDGDZydTHP_Ko-15" value="Provide a way to ask for own data." style="rounded=0;whiteSpace=wrap;html=1;shadow=0;glass=0;comic=0;strokeColor=#000000;fillColor=none;fontSize=10;align=center;fontColor=#000000;recursiveResize=0;container=1;collapsible=0;overflow=fill;" parent="mf-dzKTxDGDZydTHP_Ko-2" vertex="1">
          <mxGeometry x="490" y="10" width="60" height="40" as="geometry" />
        </mxCell>
        <mxCell id="mf-dzKTxDGDZydTHP_Ko-20" value="Provide a way to challenge/correct own data." style="rounded=0;whiteSpace=wrap;html=1;shadow=0;glass=0;comic=0;strokeColor=#000000;fillColor=none;fontSize=10;align=center;fontColor=#000000;recursiveResize=0;container=1;collapsible=0;overflow=fill;" parent="mf-dzKTxDGDZydTHP_Ko-2" vertex="1">
          <mxGeometry x="50" y="60" width="80" height="40" as="geometry" />
        </mxCell>
        <mxCell id="mf-dzKTxDGDZydTHP_Ko-21" value="Must use PII for same purpose as collected for" style="rounded=0;whiteSpace=wrap;html=1;shadow=0;glass=0;comic=0;strokeColor=#000000;fillColor=none;fontSize=10;align=center;fontColor=#000000;recursiveResize=0;container=1;collapsible=0;overflow=fill;" parent="mf-dzKTxDGDZydTHP_Ko-2" vertex="1">
          <mxGeometry x="320" y="60" width="70" height="40" as="geometry" />
        </mxCell>
        <mxCell id="AztkMJcdXYxD3bARWxmO-0" value="Title/Diagram" parent="daTf82J9nSMzatya0Rs_-0" />
        <mxCell id="AztkMJcdXYxD3bARWxmO-1" value="&lt;font style=&quot;font-size: 12px&quot;&gt;&lt;span&gt;Diagram: System Context -&amp;nbsp;&lt;/span&gt;Constraints - Agreements - Principles - &lt;br&gt;Applicable for NZ National Systems&lt;/font&gt;" style="text;strokeColor=none;fillColor=none;html=1;fontSize=12;fontStyle=2;verticalAlign=middle;align=left;shadow=0;glass=0;comic=0;opacity=30;fontColor=#808080;" parent="AztkMJcdXYxD3bARWxmO-0" vertex="1">
          <mxGeometry x="120" y="840" width="560" height="40" as="geometry" />
        </mxCell>
      </root>
    </mxGraphModel>
  </diagram>
  <diagram id="mosHHKoMUNCKRRMu_ehI" name="System Context/Constraints/Agreements/Principles/Privacy">
    <mxGraphModel dx="1130" dy="406" grid="1" gridSize="10" guides="1" tooltips="1" connect="1" arrows="1" fold="1" page="1" pageScale="1" pageWidth="827" pageHeight="1169" math="0" shadow="0">
      <root>
        <mxCell id="VuUZPpVmZ8weyxiiEjUZ-0" />
        <mxCell id="VuUZPpVmZ8weyxiiEjUZ-1" value="Diagram" parent="VuUZPpVmZ8weyxiiEjUZ-0" />
        <mxCell id="BPDDqp0WyomeCQy9vxMp-4" value="Purpose for Collection" style="rounded=0;whiteSpace=wrap;html=1;shadow=0;glass=0;comic=0;strokeColor=#000000;fillColor=#f5f5f5;fontSize=12;align=center;fontColor=#000000;recursiveResize=0;container=1;collapsible=0;overflow=fill;" parent="VuUZPpVmZ8weyxiiEjUZ-1" vertex="1">
          <mxGeometry x="120" y="260" width="120" height="20" as="geometry" />
        </mxCell>
        <mxCell id="BPDDqp0WyomeCQy9vxMp-5" value="Source of Information" style="rounded=0;whiteSpace=wrap;html=1;shadow=0;glass=0;comic=0;strokeColor=#000000;fillColor=#f5f5f5;fontSize=12;align=center;fontColor=#000000;recursiveResize=0;container=1;collapsible=0;overflow=fill;" parent="VuUZPpVmZ8weyxiiEjUZ-1" vertex="1">
          <mxGeometry x="120" y="280" width="120" height="20" as="geometry" />
        </mxCell>
        <mxCell id="BPDDqp0WyomeCQy9vxMp-6" value="&lt;font style=&quot;font-size: 11px&quot;&gt;What to tell an individual&lt;/font&gt;" style="rounded=0;whiteSpace=wrap;html=1;shadow=0;glass=0;comic=0;strokeColor=#000000;fillColor=#f5f5f5;fontSize=12;align=center;fontColor=#000000;recursiveResize=0;container=1;collapsible=0;overflow=fill;" parent="VuUZPpVmZ8weyxiiEjUZ-1" vertex="1">
          <mxGeometry x="120" y="300" width="120" height="20" as="geometry" />
        </mxCell>
        <mxCell id="BPDDqp0WyomeCQy9vxMp-7" value="Manner of Collection" style="rounded=0;whiteSpace=wrap;html=1;shadow=0;glass=0;comic=0;strokeColor=#000000;fillColor=#f5f5f5;fontSize=12;align=center;fontColor=#000000;recursiveResize=0;container=1;collapsible=0;overflow=fill;" parent="VuUZPpVmZ8weyxiiEjUZ-1" vertex="1">
          <mxGeometry x="120" y="320" width="120" height="20" as="geometry" />
        </mxCell>
        <mxCell id="BPDDqp0WyomeCQy9vxMp-8" value="Storage &amp;amp; Security" style="rounded=0;whiteSpace=wrap;html=1;shadow=0;glass=0;comic=0;strokeColor=#000000;fillColor=#f5f5f5;fontSize=12;align=center;fontColor=#000000;recursiveResize=0;container=1;collapsible=0;overflow=fill;" parent="VuUZPpVmZ8weyxiiEjUZ-1" vertex="1">
          <mxGeometry x="120" y="340" width="120" height="20" as="geometry" />
        </mxCell>
        <mxCell id="BPDDqp0WyomeCQy9vxMp-9" value="Access" style="rounded=0;whiteSpace=wrap;html=1;shadow=0;glass=0;comic=0;strokeColor=#000000;fillColor=#f5f5f5;fontSize=12;align=center;fontColor=#000000;recursiveResize=0;container=1;collapsible=0;overflow=fill;" parent="VuUZPpVmZ8weyxiiEjUZ-1" vertex="1">
          <mxGeometry x="120" y="360" width="120" height="20" as="geometry" />
        </mxCell>
        <mxCell id="BPDDqp0WyomeCQy9vxMp-10" value="Correction" style="rounded=0;whiteSpace=wrap;html=1;shadow=0;glass=0;comic=0;strokeColor=#000000;fillColor=#f5f5f5;fontSize=12;align=center;fontColor=#000000;recursiveResize=0;container=1;collapsible=0;overflow=fill;" parent="VuUZPpVmZ8weyxiiEjUZ-1" vertex="1">
          <mxGeometry x="120" y="380" width="120" height="20" as="geometry" />
        </mxCell>
        <mxCell id="BPDDqp0WyomeCQy9vxMp-11" value="Accuracy" style="rounded=0;whiteSpace=wrap;html=1;shadow=0;glass=0;comic=0;strokeColor=#000000;fillColor=#f5f5f5;fontSize=12;align=center;fontColor=#000000;recursiveResize=0;container=1;collapsible=0;overflow=fill;" parent="VuUZPpVmZ8weyxiiEjUZ-1" vertex="1">
          <mxGeometry x="120" y="400" width="120" height="20" as="geometry" />
        </mxCell>
        <mxCell id="BPDDqp0WyomeCQy9vxMp-12" value="Retention" style="rounded=0;whiteSpace=wrap;html=1;shadow=0;glass=0;comic=0;strokeColor=#000000;fillColor=#f5f5f5;fontSize=12;align=center;fontColor=#000000;recursiveResize=0;container=1;collapsible=0;overflow=fill;" parent="VuUZPpVmZ8weyxiiEjUZ-1" vertex="1">
          <mxGeometry x="120" y="420" width="120" height="20" as="geometry" />
        </mxCell>
        <mxCell id="BPDDqp0WyomeCQy9vxMp-13" value="Use" style="rounded=0;whiteSpace=wrap;html=1;shadow=0;glass=0;comic=0;strokeColor=#000000;fillColor=#f5f5f5;fontSize=12;align=center;fontColor=#000000;recursiveResize=0;container=1;collapsible=0;overflow=fill;" parent="VuUZPpVmZ8weyxiiEjUZ-1" vertex="1">
          <mxGeometry x="120" y="440" width="120" height="20" as="geometry" />
        </mxCell>
        <mxCell id="BPDDqp0WyomeCQy9vxMp-14" value="Disclosure" style="rounded=0;whiteSpace=wrap;html=1;shadow=0;glass=0;comic=0;strokeColor=#000000;fillColor=#f5f5f5;fontSize=12;align=center;fontColor=#000000;recursiveResize=0;container=1;collapsible=0;overflow=fill;" parent="VuUZPpVmZ8weyxiiEjUZ-1" vertex="1">
          <mxGeometry x="120" y="460" width="120" height="20" as="geometry" />
        </mxCell>
        <mxCell id="BPDDqp0WyomeCQy9vxMp-15" value="Unique Identifiers" style="rounded=0;whiteSpace=wrap;html=1;shadow=0;glass=0;comic=0;strokeColor=#000000;fillColor=#f5f5f5;fontSize=12;align=center;fontColor=#000000;recursiveResize=0;container=1;collapsible=0;overflow=fill;" parent="VuUZPpVmZ8weyxiiEjUZ-1" vertex="1">
          <mxGeometry x="120" y="480" width="120" height="20" as="geometry" />
        </mxCell>
        <mxCell id="BPDDqp0WyomeCQy9vxMp-16" value="&lt;span style=&quot;white-space: nowrap&quot;&gt;PII must be protected from disclosure&lt;/span&gt;" style="text;html=1;strokeColor=none;fillColor=none;align=left;verticalAlign=middle;whiteSpace=wrap;rounded=0;" parent="VuUZPpVmZ8weyxiiEjUZ-1" vertex="1">
          <mxGeometry x="260" y="340" width="420" height="20" as="geometry" />
        </mxCell>
        <mxCell id="BPDDqp0WyomeCQy9vxMp-17" value="&lt;span style=&quot;white-space: nowrap&quot;&gt;Collect PII only if necessary, lawful and for a purpose connected to an agency.&lt;/span&gt;" style="text;html=1;strokeColor=none;fillColor=none;align=left;verticalAlign=middle;whiteSpace=wrap;rounded=0;" parent="VuUZPpVmZ8weyxiiEjUZ-1" vertex="1">
          <mxGeometry x="260" y="260" width="420" height="20" as="geometry" />
        </mxCell>
        <mxCell id="BPDDqp0WyomeCQy9vxMp-18" value="&lt;span style=&quot;color: rgb(51, 51, 51); text-align: center; font-size: 11px;&quot;&gt;Take Reasonable steps to explain what, why, for who, whether obligated, outcomes.&lt;/span&gt;" style="text;html=1;strokeColor=none;fillColor=none;align=left;verticalAlign=middle;whiteSpace=wrap;rounded=0;fontSize=11;" parent="VuUZPpVmZ8weyxiiEjUZ-1" vertex="1">
          <mxGeometry x="260" y="300" width="420" height="20" as="geometry" />
        </mxCell>
        <mxCell id="BPDDqp0WyomeCQy9vxMp-19" value="&lt;span style=&quot;white-space: nowrap&quot;&gt;Collect PII only from the person involved, unless authorised otherwise.&lt;/span&gt;" style="text;html=1;strokeColor=none;fillColor=none;align=left;verticalAlign=middle;whiteSpace=wrap;rounded=0;" parent="VuUZPpVmZ8weyxiiEjUZ-1" vertex="1">
          <mxGeometry x="260" y="280" width="420" height="20" as="geometry" />
        </mxCell>
        <mxCell id="BPDDqp0WyomeCQy9vxMp-20" value="&lt;span style=&quot;white-space: nowrap&quot;&gt;PII must be collectd lawfully&lt;/span&gt;" style="text;html=1;strokeColor=none;fillColor=none;align=left;verticalAlign=middle;whiteSpace=wrap;rounded=0;" parent="VuUZPpVmZ8weyxiiEjUZ-1" vertex="1">
          <mxGeometry x="260" y="320" width="420" height="20" as="geometry" />
        </mxCell>
        <mxCell id="BPDDqp0WyomeCQy9vxMp-21" value="&lt;span style=&quot;color: rgb(51 , 51 , 51) ; text-align: center&quot;&gt;Provide a way to ask for own data.&lt;/span&gt;" style="text;html=1;strokeColor=none;fillColor=none;align=left;verticalAlign=middle;whiteSpace=wrap;rounded=0;" parent="VuUZPpVmZ8weyxiiEjUZ-1" vertex="1">
          <mxGeometry x="260" y="360" width="420" height="20" as="geometry" />
        </mxCell>
        <mxCell id="BPDDqp0WyomeCQy9vxMp-22" value="&lt;span style=&quot;color: rgb(51 , 51 , 51) ; text-align: center&quot;&gt;Provide a way to challenge/correct own data.&lt;/span&gt;" style="text;html=1;strokeColor=none;fillColor=none;align=left;verticalAlign=middle;whiteSpace=wrap;rounded=0;" parent="VuUZPpVmZ8weyxiiEjUZ-1" vertex="1">
          <mxGeometry x="260" y="380" width="420" height="20" as="geometry" />
        </mxCell>
        <mxCell id="BPDDqp0WyomeCQy9vxMp-23" value="&lt;span style=&quot;color: rgb(51 , 51 , 51) ; text-align: center&quot;&gt;Before use, take steps to ensure info is correct&lt;/span&gt;" style="text;html=1;strokeColor=none;fillColor=none;align=left;verticalAlign=middle;whiteSpace=wrap;rounded=0;" parent="VuUZPpVmZ8weyxiiEjUZ-1" vertex="1">
          <mxGeometry x="260" y="400" width="420" height="20" as="geometry" />
        </mxCell>
        <mxCell id="BPDDqp0WyomeCQy9vxMp-24" value="&lt;span style=&quot;color: rgb(51 , 51 , 51) ; text-align: center&quot;&gt;Must not keep info longer than lawfully required&lt;/span&gt;" style="text;html=1;strokeColor=none;fillColor=none;align=left;verticalAlign=middle;whiteSpace=wrap;rounded=0;" parent="VuUZPpVmZ8weyxiiEjUZ-1" vertex="1">
          <mxGeometry x="260" y="420" width="420" height="20" as="geometry" />
        </mxCell>
        <mxCell id="BPDDqp0WyomeCQy9vxMp-25" value="&lt;span style=&quot;color: rgb(51 , 51 , 51) ; text-align: center&quot;&gt;Must use PII for same purpose as collected for&lt;/span&gt;" style="text;html=1;strokeColor=none;fillColor=none;align=left;verticalAlign=middle;whiteSpace=wrap;rounded=0;" parent="VuUZPpVmZ8weyxiiEjUZ-1" vertex="1">
          <mxGeometry x="260" y="440" width="420" height="20" as="geometry" />
        </mxCell>
        <mxCell id="BPDDqp0WyomeCQy9vxMp-26" value="&lt;span style=&quot;color: rgb(51 , 51 , 51) ; text-align: center&quot;&gt;Disclosure of PII is limited.&lt;/span&gt;" style="text;html=1;strokeColor=none;fillColor=none;align=left;verticalAlign=middle;whiteSpace=wrap;rounded=0;" parent="VuUZPpVmZ8weyxiiEjUZ-1" vertex="1">
          <mxGeometry x="260" y="460" width="420" height="20" as="geometry" />
        </mxCell>
        <mxCell id="BPDDqp0WyomeCQy9vxMp-27" value="&lt;span style=&quot;color: rgb(51 , 51 , 51) ; text-align: center&quot;&gt;Do not use other agencies unique IDs.&lt;/span&gt;" style="text;html=1;strokeColor=none;fillColor=none;align=left;verticalAlign=middle;whiteSpace=wrap;rounded=0;" parent="VuUZPpVmZ8weyxiiEjUZ-1" vertex="1">
          <mxGeometry x="260" y="480" width="420" height="20" as="geometry" />
        </mxCell>
        <mxCell id="sIp9oksfCshYZuwQJ3sP-0" value="Context/Legend" parent="VuUZPpVmZ8weyxiiEjUZ-0" />
        <mxCell id="sIp9oksfCshYZuwQJ3sP-1" value="&lt;font style=&quot;font-size: 11px ; line-height: 100%&quot;&gt;Source:&lt;br&gt;&lt;a href=&quot;https://www.privacy.org.nz/news-and-publications/guidance-resources/a-quick-tour-of-the-privacy-principles/&quot;&gt;https://www.privacy.org.nz/news-and-publications/guidance-resources/a-quick-tour-of-the-privacy-principles/&lt;/a&gt;&lt;/font&gt;" style="shape=note;whiteSpace=wrap;html=1;size=14;verticalAlign=top;align=left;spacingTop=-6;" parent="sIp9oksfCshYZuwQJ3sP-0" vertex="1">
          <mxGeometry x="320" y="190" width="360" height="50" as="geometry" />
        </mxCell>
        <mxCell id="mfoWVDkNZ99K6zmK8N81-2" value="Title/Diagram" parent="VuUZPpVmZ8weyxiiEjUZ-0" />
        <mxCell id="mfoWVDkNZ99K6zmK8N81-4" value="&lt;font style=&quot;font-size: 11px&quot;&gt;&lt;span&gt;Diagram: System Context -&amp;nbsp;&lt;/span&gt;Constraints - Agreements - Principles -&amp;nbsp; NZ Specific -&amp;nbsp;Privacy&lt;/font&gt;" style="text;strokeColor=none;fillColor=none;html=1;fontSize=12;fontStyle=2;verticalAlign=middle;align=left;shadow=0;glass=0;comic=0;opacity=30;fontColor=#808080;" parent="mfoWVDkNZ99K6zmK8N81-2" vertex="1">
          <mxGeometry x="120" y="520" width="560" height="20" as="geometry" />
        </mxCell>
      </root>
    </mxGraphModel>
  </diagram>
  <diagram id="yNN_HRqVokFg5lgFGNlZ" name="System Context/Constraints/Agreements/Principles/Digital Standards">
    <mxGraphModel dx="1886" dy="818" grid="1" gridSize="10" guides="1" tooltips="1" connect="1" arrows="1" fold="1" page="1" pageScale="1" pageWidth="827" pageHeight="1169" math="0" shadow="0">
      <root>
        <mxCell id="SS3VGFc2r9QsdcYSXJZ9-0" />
        <mxCell id="SS3VGFc2r9QsdcYSXJZ9-1" value="Diagram" style="" parent="SS3VGFc2r9QsdcYSXJZ9-0" />
        <mxCell id="uP6PbB_eLCcG2kmAAAx3-1" value="Flexible" style="rounded=0;whiteSpace=wrap;html=1;shadow=0;glass=0;comic=0;fontSize=12;align=center;recursiveResize=0;container=1;collapsible=0;overflow=fill;fillColor=#f5f5f5;strokeColor=#000000;fontColor=#000000;" parent="SS3VGFc2r9QsdcYSXJZ9-1" vertex="1">
          <mxGeometry x="120" y="330" width="80" height="30" as="geometry" />
        </mxCell>
        <mxCell id="uP6PbB_eLCcG2kmAAAx3-2" value="User Centric" style="rounded=0;whiteSpace=wrap;html=1;shadow=0;glass=0;comic=0;fontSize=12;align=center;recursiveResize=0;container=1;collapsible=0;overflow=fill;fillColor=#f5f5f5;strokeColor=#000000;fontColor=#000000;" parent="SS3VGFc2r9QsdcYSXJZ9-1" vertex="1">
          <mxGeometry x="120" y="253" width="80" height="27" as="geometry" />
        </mxCell>
        <mxCell id="uP6PbB_eLCcG2kmAAAx3-3" value="Open and Transparent" style="rounded=0;whiteSpace=wrap;html=1;shadow=0;glass=0;comic=0;fontSize=12;align=center;recursiveResize=0;container=1;collapsible=0;overflow=fill;fillColor=#f5f5f5;strokeColor=#000000;fontColor=#000000;" parent="SS3VGFc2r9QsdcYSXJZ9-1" vertex="1">
          <mxGeometry x="120" y="290" width="80" height="30" as="geometry" />
        </mxCell>
        <mxCell id="uP6PbB_eLCcG2kmAAAx3-4" value="Vendor Independent" style="rounded=0;whiteSpace=wrap;html=1;shadow=0;glass=0;comic=0;fontSize=12;align=center;recursiveResize=0;container=1;collapsible=0;overflow=fill;fillColor=#f5f5f5;strokeColor=#000000;fontColor=#000000;" parent="SS3VGFc2r9QsdcYSXJZ9-1" vertex="1">
          <mxGeometry x="120" y="370" width="80" height="30" as="geometry" />
        </mxCell>
        <mxCell id="uP6PbB_eLCcG2kmAAAx3-6" value="Pragmatic" style="rounded=0;whiteSpace=wrap;html=1;shadow=0;glass=0;comic=0;fontSize=12;align=center;recursiveResize=0;container=1;collapsible=0;overflow=fill;fillColor=#f5f5f5;strokeColor=#000000;fontColor=#000000;" parent="SS3VGFc2r9QsdcYSXJZ9-1" vertex="1">
          <mxGeometry x="120" y="410" width="80" height="30" as="geometry" />
        </mxCell>
        <mxCell id="uP6PbB_eLCcG2kmAAAx3-7" value="Well Informed" style="rounded=0;whiteSpace=wrap;html=1;shadow=0;glass=0;comic=0;fontSize=12;align=center;recursiveResize=0;container=1;collapsible=0;overflow=fill;fillColor=#f5f5f5;strokeColor=#000000;fontColor=#000000;" parent="SS3VGFc2r9QsdcYSXJZ9-1" vertex="1">
          <mxGeometry x="120" y="450" width="80" height="30" as="geometry" />
        </mxCell>
        <mxCell id="uP6PbB_eLCcG2kmAAAx3-8" value="Standards Compliance" style="rounded=0;whiteSpace=wrap;html=1;shadow=0;glass=0;comic=0;fontSize=12;align=center;recursiveResize=0;container=1;collapsible=0;overflow=fill;fillColor=#f5f5f5;strokeColor=#000000;fontColor=#000000;" parent="SS3VGFc2r9QsdcYSXJZ9-1" vertex="1">
          <mxGeometry x="120" y="490" width="80" height="30" as="geometry" />
        </mxCell>
        <mxCell id="uP6PbB_eLCcG2kmAAAx3-9" value="International First" style="rounded=0;whiteSpace=wrap;html=1;shadow=0;glass=0;comic=0;fontSize=12;align=center;recursiveResize=0;container=1;collapsible=0;overflow=fill;fillColor=#f5f5f5;strokeColor=#000000;fontColor=#000000;" parent="SS3VGFc2r9QsdcYSXJZ9-1" vertex="1">
          <mxGeometry x="120" y="530" width="80" height="30" as="geometry" />
        </mxCell>
        <mxCell id="uP6PbB_eLCcG2kmAAAx3-10" value="&lt;p style=&quot;line-height: 100%&quot;&gt;Place the needs of users at the heart of standards choices. Selecting a standard should not impose unreasonable costs on individuals, organisations and agencies.&lt;/p&gt;" style="text;html=1;strokeColor=none;fillColor=none;align=left;verticalAlign=middle;whiteSpace=wrap;rounded=0;fontFamily=Helvetica;fontSize=12;gradientColor=none;recursiveResize=0;" parent="SS3VGFc2r9QsdcYSXJZ9-1" vertex="1">
          <mxGeometry x="240" y="253" width="440" height="27" as="geometry" />
        </mxCell>
        <mxCell id="uP6PbB_eLCcG2kmAAAx3-11" value="&lt;p style=&quot;line-height: 100%&quot;&gt;Adopted standards should be openly published, developed in a transparent way, freely available, have an acceptable level of use, and be regularly maintained.&lt;/p&gt;" style="text;html=1;strokeColor=none;fillColor=none;align=left;verticalAlign=middle;whiteSpace=wrap;rounded=0;fontFamily=Helvetica;fontSize=12;gradientColor=none;" parent="SS3VGFc2r9QsdcYSXJZ9-1" vertex="1">
          <mxGeometry x="240" y="290" width="440" height="20" as="geometry" />
        </mxCell>
        <mxCell id="uP6PbB_eLCcG2kmAAAx3-12" value="&lt;p style=&quot;line-height: 100%&quot;&gt;Make standards choices that support flexibility and change. Standards should enable services to be implemented by a broad range of suppliers.&lt;/p&gt;" style="text;html=1;strokeColor=none;fillColor=none;align=left;verticalAlign=middle;whiteSpace=wrap;rounded=0;fontFamily=Helvetica;fontSize=12;gradientColor=none;" parent="SS3VGFc2r9QsdcYSXJZ9-1" vertex="1">
          <mxGeometry x="240" y="330" width="440" height="30" as="geometry" />
        </mxCell>
        <mxCell id="uP6PbB_eLCcG2kmAAAx3-13" value="&lt;p style=&quot;line-height: 100%&quot;&gt;&lt;font style=&quot;font-size: 11px&quot;&gt;Select standards that enable suppliers to compete on a level playing field, with no unintentional lock in and potentially allow for large work programmes/contracts to be broken down into smaller components.&lt;/font&gt;&lt;/p&gt;" style="text;html=1;strokeColor=none;fillColor=none;align=left;verticalAlign=middle;whiteSpace=wrap;rounded=0;fontFamily=Helvetica;fontSize=12;gradientColor=none;" parent="SS3VGFc2r9QsdcYSXJZ9-1" vertex="1">
          <mxGeometry x="240" y="370" width="440" height="40" as="geometry" />
        </mxCell>
        <mxCell id="uP6PbB_eLCcG2kmAAAx3-14" value="&lt;p style=&quot;line-height: 100%&quot;&gt;Adopt standards that support sustainable cost. Increased standardisation enables sharing and reuse of IT solutions and components across government. Value for money is achieved through avoiding lock-in and increased reuse.&lt;/p&gt;" style="text;html=1;strokeColor=none;fillColor=none;align=left;verticalAlign=middle;whiteSpace=wrap;rounded=0;fontFamily=Helvetica;fontSize=12;gradientColor=none;" parent="SS3VGFc2r9QsdcYSXJZ9-1" vertex="1">
          <mxGeometry x="240" y="410" width="440" height="40" as="geometry" />
        </mxCell>
        <mxCell id="uP6PbB_eLCcG2kmAAAx3-16" value="&lt;p style=&quot;line-height: 100%&quot;&gt;Select standards as a result of well informed decision making.&lt;/p&gt;" style="text;html=1;strokeColor=none;fillColor=none;align=left;verticalAlign=middle;whiteSpace=wrap;rounded=0;fontFamily=Helvetica;fontSize=12;gradientColor=none;" parent="SS3VGFc2r9QsdcYSXJZ9-1" vertex="1">
          <mxGeometry x="240" y="450" width="440" height="30" as="geometry" />
        </mxCell>
        <mxCell id="uP6PbB_eLCcG2kmAAAx3-17" value="&lt;p style=&quot;line-height: 100%&quot;&gt;&lt;font style=&quot;font-size: 11px&quot;&gt;Standards compliance is consistently applied. Agencies are obliged to responsibly self-regulate standards compliance. Where policy demands, an agency or a supplier must comply with a standard and provide evidence to verify or certify compliance.&lt;/font&gt;&lt;/p&gt;" style="text;html=1;strokeColor=none;fillColor=none;align=left;verticalAlign=middle;whiteSpace=wrap;rounded=0;fontFamily=Helvetica;fontSize=12;gradientColor=none;" parent="SS3VGFc2r9QsdcYSXJZ9-1" vertex="1">
          <mxGeometry x="240" y="485" width="440" height="35" as="geometry" />
        </mxCell>
        <mxCell id="uP6PbB_eLCcG2kmAAAx3-18" value="&lt;p style=&quot;line-height: 100%&quot;&gt;Adopting intl standards should be first.If one is not suitable, consider a NZ profile of an intl standard, rather than developing local NZ or NZ government standards.&lt;/p&gt;" style="text;html=1;strokeColor=none;fillColor=none;align=left;verticalAlign=middle;whiteSpace=wrap;rounded=0;fontFamily=Helvetica;fontSize=12;gradientColor=none;" parent="SS3VGFc2r9QsdcYSXJZ9-1" vertex="1">
          <mxGeometry x="240" y="530" width="440" height="40" as="geometry" />
        </mxCell>
        <mxCell id="2pSf7Q7Bh2teC6L5hrAS-0" value="Source:&lt;br&gt;&lt;a href=&quot;https://www.digital.govt.nz/standards-and-guidance/technology-and-architecture/government-enterprise-architecture/government-digital-standards-catalogue/digital-standards-principles/&quot;&gt;https://www.digital.govt.nz/standards-and-guidance/technology-and-architecture/government-enterprise-architecture/government-digital-standards-catalogue/digital-standards-principles/&lt;/a&gt;" style="shape=note;whiteSpace=wrap;html=1;size=14;verticalAlign=top;align=left;spacingTop=-6;" parent="SS3VGFc2r9QsdcYSXJZ9-1" vertex="1">
          <mxGeometry x="320" y="180" width="360" height="60" as="geometry" />
        </mxCell>
        <mxCell id="zwicZmFc_BBR-h58xZ7R-0" value="Title/Diagram" parent="SS3VGFc2r9QsdcYSXJZ9-0" />
        <mxCell id="zwicZmFc_BBR-h58xZ7R-4" value="&lt;font style=&quot;font-size: 12px&quot;&gt;&lt;span style=&quot;font-size: 12px&quot;&gt;Diagram: System Context -&amp;nbsp;&lt;/span&gt;Constraints - Agreements - Principles - &lt;br style=&quot;font-size: 12px&quot;&gt;NZ Specific -&amp;nbsp;Digital Standards&lt;/font&gt;/Principles" style="text;strokeColor=none;fillColor=none;html=1;fontSize=12;fontStyle=2;verticalAlign=middle;align=left;shadow=0;glass=0;comic=0;opacity=30;fontColor=#808080;" parent="zwicZmFc_BBR-h58xZ7R-0" vertex="1">
          <mxGeometry x="120" y="570" width="520" height="40" as="geometry" />
        </mxCell>
      </root>
    </mxGraphModel>
  </diagram>
  <diagram id="QV25udCVxvQ52SoqGovh" name="System Context/Constraints/Agreements/Principles/Digital Service Design Standards">
    <mxGraphModel dx="1711" dy="681" grid="1" gridSize="10" guides="1" tooltips="1" connect="1" arrows="1" fold="1" page="1" pageScale="1" pageWidth="827" pageHeight="1169" math="0" shadow="0">
      <root>
        <mxCell id="BCLIQNdFYH9zoaBGpCrp-0" />
        <mxCell id="njG2ldwhlAt86AhZ6qLt-2" value="Diagram" parent="BCLIQNdFYH9zoaBGpCrp-0" />
        <mxCell id="MmeVPEBk6-kc0MxqiTCA-4" value="&lt;h1 style=&quot;box-sizing: border-box; margin: 0px; font-size: 12px; line-height: 1.2; color: rgb(0, 0, 0); padding: 0px; background-color: rgb(255, 255, 255);&quot;&gt;&lt;span style=&quot;font-weight: normal; font-size: 12px;&quot;&gt;Identify your users and understand their ongoing needs&lt;/span&gt;&lt;/h1&gt;" style="text;html=1;strokeColor=none;fillColor=none;align=left;verticalAlign=top;whiteSpace=wrap;rounded=0;fontFamily=Helvetica;fontSize=12;fontColor=#999999;gradientColor=none;recursiveResize=0;" parent="njG2ldwhlAt86AhZ6qLt-2" vertex="1">
          <mxGeometry x="280" y="260" width="400" height="40" as="geometry" />
        </mxCell>
        <mxCell id="MmeVPEBk6-kc0MxqiTCA-6" value="&lt;h1 style=&quot;box-sizing: border-box; margin: 0px; font-size: 12px; line-height: 1.2; color: rgb(0, 0, 0); padding: 0px; background-color: rgb(255, 255, 255);&quot;&gt;&lt;span style=&quot;font-weight: normal; font-size: 12px;&quot;&gt;Identify your users and understand their ongoing needs&lt;/span&gt;&lt;/h1&gt;" style="text;html=1;strokeColor=none;fillColor=none;align=left;verticalAlign=top;whiteSpace=wrap;rounded=0;fontFamily=Helvetica;fontSize=12;fontColor=#999999;gradientColor=none;recursiveResize=0;" parent="njG2ldwhlAt86AhZ6qLt-2" vertex="1">
          <mxGeometry x="280" y="310" width="400" height="40" as="geometry" />
        </mxCell>
        <mxCell id="MmeVPEBk6-kc0MxqiTCA-3" value="Identify Users, Understand their Needs" style="rounded=0;whiteSpace=wrap;html=1;shadow=0;glass=0;comic=0;strokeColor=#000000;fillColor=#f5f5f5;fontSize=12;align=center;fontColor=#000000;recursiveResize=0;container=1;collapsible=0;overflow=fill;" parent="njG2ldwhlAt86AhZ6qLt-2" vertex="1">
          <mxGeometry x="120" y="260" width="120" height="40" as="geometry" />
        </mxCell>
        <mxCell id="MmeVPEBk6-kc0MxqiTCA-5" value="Be Clear about Intent to Change and Why" style="rounded=0;whiteSpace=wrap;html=1;shadow=0;glass=0;comic=0;strokeColor=#000000;fillColor=#f5f5f5;fontSize=12;align=center;fontColor=#000000;recursiveResize=0;container=1;collapsible=0;overflow=fill;" parent="njG2ldwhlAt86AhZ6qLt-2" vertex="1">
          <mxGeometry x="120" y="310" width="120" height="40" as="geometry" />
        </mxCell>
        <mxCell id="MmeVPEBk6-kc0MxqiTCA-7" value="Integrate Security and Privacy from the Start" style="rounded=0;whiteSpace=wrap;html=1;shadow=0;glass=0;comic=0;strokeColor=#000000;fillColor=#f5f5f5;fontSize=12;align=center;fontColor=#000000;recursiveResize=0;container=1;collapsible=0;overflow=fill;" parent="njG2ldwhlAt86AhZ6qLt-2" vertex="1">
          <mxGeometry x="120" y="360" width="120" height="40" as="geometry" />
        </mxCell>
        <mxCell id="MmeVPEBk6-kc0MxqiTCA-9" value="&lt;h1 style=&quot;box-sizing: border-box; margin: 0px; font-size: 12px; line-height: 1.2; color: rgb(0, 0, 0); padding: 0px; background-color: rgb(255, 255, 255);&quot;&gt;&lt;span style=&quot;font-family: fira, helvetica, arial, sans-serif; font-size: 12px; font-weight: 400;&quot;&gt;Identify the drivers for change or the desired intended outcomes.&lt;/span&gt;&lt;br style=&quot;font-size: 12px;&quot;&gt;&lt;/h1&gt;" style="text;html=1;strokeColor=none;fillColor=none;align=left;verticalAlign=top;whiteSpace=wrap;rounded=0;fontFamily=Helvetica;fontSize=12;fontColor=#999999;gradientColor=none;recursiveResize=0;" parent="njG2ldwhlAt86AhZ6qLt-2" vertex="1">
          <mxGeometry x="280" y="360" width="400" height="40" as="geometry" />
        </mxCell>
        <mxCell id="MmeVPEBk6-kc0MxqiTCA-13" value="Be Inclusive, provide Ethical &amp;amp; Equitable, access" style="rounded=0;whiteSpace=wrap;html=1;shadow=0;glass=0;comic=0;strokeColor=#000000;fillColor=#f5f5f5;fontSize=12;align=center;fontColor=#000000;recursiveResize=0;container=1;collapsible=0;overflow=fill;" parent="njG2ldwhlAt86AhZ6qLt-2" vertex="1">
          <mxGeometry x="120" y="410" width="120" height="40" as="geometry" />
        </mxCell>
        <mxCell id="MmeVPEBk6-kc0MxqiTCA-14" value="&lt;h1 style=&quot;box-sizing: border-box; margin: 0px; font-size: 12px; line-height: 1.2; color: rgb(0, 0, 0); padding: 0px; background-color: rgb(255, 255, 255);&quot;&gt;&lt;br style=&quot;font-size: 12px;&quot;&gt;&lt;/h1&gt;" style="text;html=1;strokeColor=none;fillColor=none;align=left;verticalAlign=top;whiteSpace=wrap;rounded=0;fontFamily=Helvetica;fontSize=12;fontColor=#999999;gradientColor=none;recursiveResize=0;" parent="njG2ldwhlAt86AhZ6qLt-2" vertex="1">
          <mxGeometry x="280" y="410" width="400" height="40" as="geometry" />
        </mxCell>
        <mxCell id="MmeVPEBk6-kc0MxqiTCA-16" value="Design &amp;amp; Resource for the Full Lifetime" style="rounded=0;whiteSpace=wrap;html=1;shadow=0;glass=0;comic=0;strokeColor=#000000;fillColor=#f5f5f5;fontSize=12;align=center;fontColor=#000000;recursiveResize=0;container=1;collapsible=0;overflow=fill;" parent="njG2ldwhlAt86AhZ6qLt-2" vertex="1">
          <mxGeometry x="120" y="460" width="120" height="40" as="geometry" />
        </mxCell>
        <mxCell id="MmeVPEBk6-kc0MxqiTCA-17" value="&lt;h1 style=&quot;box-sizing: border-box; margin: 0px; font-size: 12px; line-height: 1.2; color: rgb(0, 0, 0); padding: 0px; background-color: rgb(255, 255, 255);&quot;&gt;&lt;br style=&quot;font-size: 12px;&quot;&gt;&lt;/h1&gt;" style="text;html=1;strokeColor=none;fillColor=none;align=left;verticalAlign=top;whiteSpace=wrap;rounded=0;fontFamily=Helvetica;fontSize=12;fontColor=#999999;gradientColor=none;recursiveResize=0;" parent="njG2ldwhlAt86AhZ6qLt-2" vertex="1">
          <mxGeometry x="280" y="460" width="400" height="40" as="geometry" />
        </mxCell>
        <mxCell id="MmeVPEBk6-kc0MxqiTCA-19" value="Create/Empower interdisciplinary Team" style="rounded=0;whiteSpace=wrap;html=1;shadow=0;glass=0;comic=0;strokeColor=#000000;fillColor=#f5f5f5;fontSize=12;align=center;fontColor=#000000;recursiveResize=0;container=1;collapsible=0;overflow=fill;" parent="njG2ldwhlAt86AhZ6qLt-2" vertex="1">
          <mxGeometry x="120" y="510" width="120" height="40" as="geometry" />
        </mxCell>
        <mxCell id="MmeVPEBk6-kc0MxqiTCA-20" value="&lt;h1 style=&quot;box-sizing: border-box; margin: 0px; font-size: 12px; line-height: 1.2; color: rgb(0, 0, 0); padding: 0px; background-color: rgb(255, 255, 255);&quot;&gt;&lt;br style=&quot;font-size: 12px;&quot;&gt;&lt;/h1&gt;" style="text;html=1;strokeColor=none;fillColor=none;align=left;verticalAlign=top;whiteSpace=wrap;rounded=0;fontFamily=Helvetica;fontSize=12;fontColor=#999999;gradientColor=none;recursiveResize=0;" parent="njG2ldwhlAt86AhZ6qLt-2" vertex="1">
          <mxGeometry x="280" y="510" width="400" height="40" as="geometry" />
        </mxCell>
        <mxCell id="MmeVPEBk6-kc0MxqiTCA-22" value="Work in the Open" style="rounded=0;whiteSpace=wrap;html=1;shadow=0;glass=0;comic=0;strokeColor=#000000;fillColor=#f5f5f5;fontSize=12;align=center;fontColor=#000000;recursiveResize=0;container=1;collapsible=0;overflow=fill;" parent="njG2ldwhlAt86AhZ6qLt-2" vertex="1">
          <mxGeometry x="120" y="560" width="120" height="40" as="geometry" />
        </mxCell>
        <mxCell id="MmeVPEBk6-kc0MxqiTCA-23" value="&lt;h1 style=&quot;box-sizing: border-box; margin: 0px; font-size: 12px; line-height: 1.2; color: rgb(0, 0, 0); padding: 0px; background-color: rgb(255, 255, 255);&quot;&gt;&lt;span style=&quot;font-weight: normal; font-size: 12px;&quot;&gt;Share the evidence, decisions, process and outcomes.&lt;/span&gt;&lt;/h1&gt;" style="text;html=1;strokeColor=none;fillColor=none;align=left;verticalAlign=top;whiteSpace=wrap;rounded=0;fontFamily=Helvetica;fontSize=12;fontColor=#999999;gradientColor=none;recursiveResize=0;" parent="njG2ldwhlAt86AhZ6qLt-2" vertex="1">
          <mxGeometry x="280" y="560" width="400" height="40" as="geometry" />
        </mxCell>
        <mxCell id="MmeVPEBk6-kc0MxqiTCA-25" value="Collaborate Widely, Reuse, &amp;amp; Provide for others" style="rounded=0;whiteSpace=wrap;html=1;shadow=0;glass=0;comic=0;strokeColor=#000000;fillColor=#f5f5f5;fontSize=12;align=center;fontColor=#000000;recursiveResize=0;container=1;collapsible=0;overflow=fill;" parent="njG2ldwhlAt86AhZ6qLt-2" vertex="1">
          <mxGeometry x="120" y="610" width="120" height="40" as="geometry" />
        </mxCell>
        <mxCell id="MmeVPEBk6-kc0MxqiTCA-26" value="&lt;h1 style=&quot;box-sizing: border-box; margin: 0px; line-height: 1.2; color: rgb(0, 0, 0); padding: 0px; background-color: rgb(255, 255, 255); font-size: 12px;&quot;&gt;&lt;span style=&quot;font-family: fira, helvetica, arial, sans-serif; font-weight: 400; font-size: 12px;&quot;&gt;&lt;font style=&quot;font-size: 12px;&quot;&gt;Develop open, collaborative and innovative relationships with partners.&lt;/font&gt;&lt;/span&gt;&lt;br style=&quot;font-size: 12px;&quot;&gt;&lt;/h1&gt;" style="text;html=1;strokeColor=none;fillColor=none;align=left;verticalAlign=top;whiteSpace=wrap;rounded=0;fontFamily=Helvetica;fontSize=12;fontColor=#999999;gradientColor=none;recursiveResize=0;" parent="njG2ldwhlAt86AhZ6qLt-2" vertex="1">
          <mxGeometry x="280" y="610" width="400" height="40" as="geometry" />
        </mxCell>
        <mxCell id="MmeVPEBk6-kc0MxqiTCA-28" value="Design for our constitutional &amp;amp; culture" style="rounded=0;whiteSpace=wrap;html=1;shadow=0;glass=0;comic=0;strokeColor=#000000;fillColor=#f5f5f5;fontSize=12;align=center;fontColor=#000000;recursiveResize=0;container=1;collapsible=0;overflow=fill;" parent="njG2ldwhlAt86AhZ6qLt-2" vertex="1">
          <mxGeometry x="120" y="660" width="120" height="40" as="geometry" />
        </mxCell>
        <mxCell id="MmeVPEBk6-kc0MxqiTCA-29" value="&lt;h1 style=&quot;box-sizing: border-box; margin: 0px; line-height: 1.2; color: rgb(0, 0, 0); padding: 0px; background-color: rgb(255, 255, 255); font-size: 12px;&quot;&gt;&lt;span style=&quot;font-family: fira, helvetica, arial, sans-serif; font-weight: 400; font-size: 12px;&quot;&gt;&lt;font style=&quot;font-size: 12px;&quot;&gt;Co-design and co-create to include Aotearoa New Zealand’s unique cultural, geographical political context from the beginning.&lt;/font&gt;&lt;/span&gt;&lt;br style=&quot;font-size: 12px;&quot;&gt;&lt;/h1&gt;" style="text;html=1;strokeColor=none;fillColor=none;align=left;verticalAlign=top;whiteSpace=wrap;rounded=0;fontFamily=Helvetica;fontSize=12;fontColor=#999999;gradientColor=none;recursiveResize=0;" parent="njG2ldwhlAt86AhZ6qLt-2" vertex="1">
          <mxGeometry x="280" y="660" width="400" height="40" as="geometry" />
        </mxCell>
        <mxCell id="MmeVPEBk6-kc0MxqiTCA-31" value="Use Digital to enhance Service Delivery" style="rounded=0;whiteSpace=wrap;html=1;shadow=0;glass=0;comic=0;strokeColor=#000000;fillColor=#f5f5f5;fontSize=12;align=center;fontColor=#000000;recursiveResize=0;container=1;collapsible=0;overflow=fill;" parent="njG2ldwhlAt86AhZ6qLt-2" vertex="1">
          <mxGeometry x="120" y="711" width="120" height="40" as="geometry" />
        </mxCell>
        <mxCell id="MmeVPEBk6-kc0MxqiTCA-32" value="&lt;h1 style=&quot;box-sizing: border-box; margin: 0px; line-height: 1.2; color: rgb(0, 0, 0); padding: 0px; background-color: rgb(255, 255, 255); font-size: 12px;&quot;&gt;&lt;span style=&quot;font-family: fira, helvetica, arial, sans-serif; font-weight: 400; font-size: 12px;&quot;&gt;&lt;font style=&quot;font-size: 12px;&quot;&gt;Use technology as an enabler for well-designed services to deliver further efficiency and cost effectiveness, not as the purpose or driver.&lt;/font&gt;&lt;/span&gt;&lt;br style=&quot;font-size: 12px;&quot;&gt;&lt;/h1&gt;" style="text;html=1;strokeColor=none;fillColor=none;align=left;verticalAlign=top;whiteSpace=wrap;rounded=0;fontFamily=Helvetica;fontSize=12;fontColor=#999999;gradientColor=none;recursiveResize=0;" parent="njG2ldwhlAt86AhZ6qLt-2" vertex="1">
          <mxGeometry x="280" y="711" width="400" height="40" as="geometry" />
        </mxCell>
        <mxCell id="MmeVPEBk6-kc0MxqiTCA-34" value="Be a good data and information steward" style="rounded=0;whiteSpace=wrap;html=1;shadow=0;glass=0;comic=0;strokeColor=#000000;fillColor=#f5f5f5;fontSize=12;align=center;fontColor=#000000;recursiveResize=0;container=1;collapsible=0;overflow=fill;" parent="njG2ldwhlAt86AhZ6qLt-2" vertex="1">
          <mxGeometry x="120" y="760" width="120" height="40" as="geometry" />
        </mxCell>
        <mxCell id="MmeVPEBk6-kc0MxqiTCA-35" value="&lt;h1 style=&quot;box-sizing: border-box; margin: 0px; line-height: 1.2; color: rgb(0, 0, 0); padding: 0px; background-color: rgb(255, 255, 255); font-size: 12px;&quot;&gt;&lt;span style=&quot;font-family: fira, helvetica, arial, sans-serif; font-weight: 400; font-size: 12px;&quot;&gt;&lt;font style=&quot;font-size: 12px;&quot;&gt;Collect data once to avoid duplication and ensure data and information is well governed and available across platforms, repositories and custodians.&lt;/font&gt;&lt;/span&gt;&lt;br style=&quot;font-size: 12px;&quot;&gt;&lt;/h1&gt;" style="text;html=1;strokeColor=none;fillColor=none;align=left;verticalAlign=top;whiteSpace=wrap;rounded=0;fontFamily=Helvetica;fontSize=12;fontColor=#999999;gradientColor=none;recursiveResize=0;" parent="njG2ldwhlAt86AhZ6qLt-2" vertex="1">
          <mxGeometry x="280" y="760" width="400" height="40" as="geometry" />
        </mxCell>
        <mxCell id="MmeVPEBk6-kc0MxqiTCA-37" value="Be transparent and accountable to the public" style="rounded=0;whiteSpace=wrap;html=1;shadow=0;glass=0;comic=0;strokeColor=#000000;fillColor=#f5f5f5;fontSize=12;align=center;fontColor=#000000;recursiveResize=0;container=1;collapsible=0;overflow=fill;" parent="njG2ldwhlAt86AhZ6qLt-2" vertex="1">
          <mxGeometry x="120" y="811" width="120" height="40" as="geometry" />
        </mxCell>
        <mxCell id="MmeVPEBk6-kc0MxqiTCA-38" value="&lt;h1 style=&quot;box-sizing: border-box; margin: 0px; line-height: 1.2; color: rgb(0, 0, 0); padding: 0px; background-color: rgb(255, 255, 255); font-size: 12px;&quot;&gt;&lt;span style=&quot;font-family: fira, helvetica, arial, sans-serif; font-weight: 400; font-size: 12px;&quot;&gt;&lt;font style=&quot;font-size: 12px;&quot;&gt;Measure and monitor the effectiveness, value and consequences of your service throughout its lifetime, and report publicly.&lt;/font&gt;&lt;/span&gt;&lt;br style=&quot;font-size: 12px;&quot;&gt;&lt;/h1&gt;" style="text;html=1;strokeColor=none;fillColor=none;align=left;verticalAlign=top;whiteSpace=wrap;rounded=0;fontFamily=Helvetica;fontSize=12;fontColor=#999999;gradientColor=none;recursiveResize=0;" parent="njG2ldwhlAt86AhZ6qLt-2" vertex="1">
          <mxGeometry x="280" y="811" width="400" height="40" as="geometry" />
        </mxCell>
        <mxCell id="m36HP_wEEQITftUyv-sV-0" value="Context/Legend" parent="BCLIQNdFYH9zoaBGpCrp-0" />
        <mxCell id="m36HP_wEEQITftUyv-sV-1" value="Source:&lt;br&gt;&lt;br&gt;&lt;a href=&quot;https://www.digital.govt.nz/standards-and-guidance/digital-service-design-standard/&quot;&gt;https://www.digital.govt.nz/standards-and-guidance/digital-service-design-standard/&lt;/a&gt;" style="shape=note;whiteSpace=wrap;html=1;size=14;verticalAlign=top;align=left;spacingTop=-6;" parent="m36HP_wEEQITftUyv-sV-0" vertex="1">
          <mxGeometry x="400" y="180" width="280" height="60" as="geometry" />
        </mxCell>
        <mxCell id="OveS-7gRzNfdyV08Yug3-0" value="Title/Diagram" parent="BCLIQNdFYH9zoaBGpCrp-0" />
        <mxCell id="MmeVPEBk6-kc0MxqiTCA-1" value="&lt;font style=&quot;font-size: 12px&quot;&gt;Diagram: System Context -&amp;nbsp;Constraints - Agreements - Principles -&amp;nbsp;&lt;br&gt;&lt;span&gt;NZ Specific -&lt;/span&gt;&lt;span&gt;&amp;nbsp;&lt;/span&gt;Digital Service Design Standards/Principles&lt;/font&gt;" style="text;strokeColor=none;fillColor=none;html=1;fontSize=10;fontStyle=2;verticalAlign=middle;align=left;shadow=0;glass=0;comic=0;opacity=30;fontColor=#808080;" parent="OveS-7gRzNfdyV08Yug3-0" vertex="1">
          <mxGeometry x="120" y="870" width="560" height="30" as="geometry" />
        </mxCell>
      </root>
    </mxGraphModel>
  </diagram>
  <diagram id="-yCrRghWV1yZ1X2wDWPH" name="System Context/Constraints/Agreements/Principles/Data &amp; Information Management">
    <mxGraphModel dx="1711" dy="681" grid="1" gridSize="10" guides="1" tooltips="1" connect="1" arrows="1" fold="1" page="1" pageScale="1" pageWidth="827" pageHeight="1169" math="0" shadow="0">
      <root>
        <mxCell id="9pa9Pr11mj6_5Fp1FYpv-0" />
        <mxCell id="vxBBJPv8Y2YeqQfoSaYq-9" value="Diagram" parent="9pa9Pr11mj6_5Fp1FYpv-0" />
        <mxCell id="9pa9Pr11mj6_5Fp1FYpv-5" value="Open" style="rounded=0;whiteSpace=wrap;html=1;shadow=0;glass=0;comic=0;strokeColor=#666666;fillColor=#f5f5f5;fontSize=12;align=center;fontColor=#333333;recursiveResize=0;container=1;collapsible=0;overflow=fill;verticalAlign=middle;" parent="vxBBJPv8Y2YeqQfoSaYq-9" vertex="1">
          <mxGeometry x="120" y="260" width="100" height="40" as="geometry" />
        </mxCell>
        <mxCell id="9pa9Pr11mj6_5Fp1FYpv-6" value="&lt;span style=&quot;color: rgb(24, 43, 70); font-family: &amp;quot;fira sans&amp;quot;, helvetica, arial, sans-serif; font-size: 12px;&quot;&gt;&lt;font style=&quot;font-size: 12px;&quot;&gt;Data and information held by government should be open for public access unless grounds for refusal or limitations exist under the Official Information Act or other government policy. In such cases they should be protected.&lt;/font&gt;&lt;/span&gt;" style="text;html=1;strokeColor=none;fillColor=none;align=left;verticalAlign=top;whiteSpace=wrap;rounded=0;fontFamily=Helvetica;fontSize=12;fontColor=#999999;gradientColor=none;recursiveResize=0;" parent="vxBBJPv8Y2YeqQfoSaYq-9" vertex="1">
          <mxGeometry x="240" y="253" width="440" height="40" as="geometry" />
        </mxCell>
        <mxCell id="9pa9Pr11mj6_5Fp1FYpv-7" value="Protected" style="rounded=0;whiteSpace=wrap;html=1;shadow=0;glass=0;comic=0;strokeColor=#666666;fillColor=#f5f5f5;fontSize=12;align=center;fontColor=#333333;recursiveResize=0;container=1;collapsible=0;overflow=fill;verticalAlign=middle;" parent="vxBBJPv8Y2YeqQfoSaYq-9" vertex="1">
          <mxGeometry x="120" y="310" width="100" height="40" as="geometry" />
        </mxCell>
        <mxCell id="9pa9Pr11mj6_5Fp1FYpv-8" value="&lt;h3 style=&quot;box-sizing: border-box; font-family: &amp;quot;fira sans&amp;quot;, helvetica, arial, sans-serif; font-weight: 500; line-height: 1.1; font-size: 12px;&quot;&gt;&lt;font style=&quot;font-size: 12px&quot;&gt;Readily Available&lt;/font&gt;&lt;/h3&gt;" style="rounded=0;whiteSpace=wrap;html=1;shadow=0;glass=0;comic=0;strokeColor=#666666;fillColor=#f5f5f5;fontSize=12;align=center;fontColor=#333333;recursiveResize=0;container=1;collapsible=0;overflow=fill;verticalAlign=middle;" parent="vxBBJPv8Y2YeqQfoSaYq-9" vertex="1">
          <mxGeometry x="120" y="360" width="100" height="40" as="geometry" />
        </mxCell>
        <mxCell id="9pa9Pr11mj6_5Fp1FYpv-9" value="&lt;h3 style=&quot;box-sizing: border-box; font-family: &amp;quot;fira sans&amp;quot;, helvetica, arial, sans-serif; font-weight: 500; line-height: 1.1; font-size: 12px;&quot;&gt;Trusted and Authoritative&lt;/h3&gt;" style="rounded=0;whiteSpace=wrap;html=1;shadow=0;glass=0;comic=0;strokeColor=#666666;fillColor=#f5f5f5;fontSize=12;align=center;fontColor=#333333;recursiveResize=0;container=1;collapsible=0;overflow=fill;verticalAlign=middle;" parent="vxBBJPv8Y2YeqQfoSaYq-9" vertex="1">
          <mxGeometry x="120" y="410" width="100" height="40" as="geometry" />
        </mxCell>
        <mxCell id="9pa9Pr11mj6_5Fp1FYpv-10" value="&lt;h3 style=&quot;box-sizing: border-box; font-family: &amp;quot;fira sans&amp;quot;, helvetica, arial, sans-serif; font-weight: 500; line-height: 1.1; font-size: 12px;&quot;&gt;Well Managed&lt;/h3&gt;" style="rounded=0;whiteSpace=wrap;html=1;shadow=0;glass=0;comic=0;strokeColor=#666666;fillColor=#f5f5f5;fontSize=12;align=center;fontColor=#333333;recursiveResize=0;container=1;collapsible=0;overflow=fill;verticalAlign=middle;" parent="vxBBJPv8Y2YeqQfoSaYq-9" vertex="1">
          <mxGeometry x="120" y="460" width="100" height="40" as="geometry" />
        </mxCell>
        <mxCell id="9pa9Pr11mj6_5Fp1FYpv-11" value="&lt;h3 style=&quot;box-sizing: border-box; font-family: &amp;quot;fira sans&amp;quot;, helvetica, arial, sans-serif; font-weight: 500; line-height: 1.1; font-size: 12px;&quot;&gt;Reasonably Priced&lt;/h3&gt;" style="rounded=0;whiteSpace=wrap;html=1;shadow=0;glass=0;comic=0;strokeColor=#666666;fillColor=#f5f5f5;fontSize=12;align=center;fontColor=#333333;recursiveResize=0;container=1;collapsible=0;overflow=fill;verticalAlign=middle;" parent="vxBBJPv8Y2YeqQfoSaYq-9" vertex="1">
          <mxGeometry x="120" y="540" width="100" height="40" as="geometry" />
        </mxCell>
        <mxCell id="9pa9Pr11mj6_5Fp1FYpv-14" value="&lt;h3 style=&quot;box-sizing: border-box; font-family: &amp;quot;fira sans&amp;quot;, helvetica, arial, sans-serif; font-weight: 500; line-height: 1.1; font-size: 12px;&quot;&gt;Reusable&lt;/h3&gt;" style="rounded=0;whiteSpace=wrap;html=1;shadow=0;glass=0;comic=0;strokeColor=#666666;fillColor=#f5f5f5;fontSize=12;align=center;fontColor=#333333;recursiveResize=0;container=1;collapsible=0;overflow=fill;verticalAlign=middle;" parent="vxBBJPv8Y2YeqQfoSaYq-9" vertex="1">
          <mxGeometry x="120" y="590" width="100" height="40" as="geometry" />
        </mxCell>
        <mxCell id="vxBBJPv8Y2YeqQfoSaYq-1" value="&lt;font style=&quot;font-size: 12px;&quot;&gt;&lt;span style=&quot;color: rgb(24, 43, 70); font-family: &amp;quot;fira sans&amp;quot;, helvetica, arial, sans-serif; font-size: 12px;&quot;&gt;Personal, confidential and classified&amp;nbsp;&lt;/span&gt;&lt;a href=&quot;https://www.data.govt.nz/manage-data/policies/new-zealand-data-and-information-management-principles/#fn2&quot; style=&quot;box-sizing: border-box; background-color: transparent; color: rgb(48, 125, 153); font-family: &amp;quot;fira sans&amp;quot;, helvetica, arial, sans-serif; font-size: 12px;&quot;&gt;[2]&lt;/a&gt;&lt;span style=&quot;color: rgb(24, 43, 70); font-family: &amp;quot;fira sans&amp;quot;, helvetica, arial, sans-serif; font-size: 12px;&quot;&gt;&amp;nbsp;data and information are protected.&lt;/span&gt;&lt;/font&gt;" style="text;html=1;strokeColor=none;fillColor=none;align=left;verticalAlign=top;whiteSpace=wrap;rounded=0;fontFamily=Helvetica;fontSize=12;fontColor=#999999;gradientColor=none;recursiveResize=0;" parent="vxBBJPv8Y2YeqQfoSaYq-9" vertex="1">
          <mxGeometry x="240" y="310" width="440" height="40" as="geometry" />
        </mxCell>
        <mxCell id="vxBBJPv8Y2YeqQfoSaYq-2" value="&lt;span style=&quot;color: rgb(24, 43, 70); font-family: &amp;quot;fira sans&amp;quot;, helvetica, arial, sans-serif; font-size: 12px;&quot;&gt;&lt;font style=&quot;font-size: 12px;&quot;&gt;Open data and information are released proactively and without discrimination. They are discoverable and accessible and released online.&lt;/font&gt;&lt;/span&gt;" style="text;html=1;strokeColor=none;fillColor=none;align=left;verticalAlign=top;whiteSpace=wrap;rounded=0;fontFamily=Helvetica;fontSize=12;fontColor=#999999;gradientColor=none;recursiveResize=0;" parent="vxBBJPv8Y2YeqQfoSaYq-9" vertex="1">
          <mxGeometry x="240" y="360" width="440" height="40" as="geometry" />
        </mxCell>
        <mxCell id="vxBBJPv8Y2YeqQfoSaYq-3" value="&lt;span style=&quot;color: rgb(24, 43, 70); font-family: &amp;quot;fira sans&amp;quot;, helvetica, arial, sans-serif; font-size: 12px;&quot;&gt;&lt;font style=&quot;font-size: 12px;&quot;&gt;Data and information support the purposes for which they were collected and are accurate, relevant, timely, consistent and without bias in that context. Where possible there is an identified authoritative single source.&lt;/font&gt;&lt;/span&gt;" style="text;html=1;strokeColor=none;fillColor=none;align=left;verticalAlign=top;whiteSpace=wrap;rounded=0;fontFamily=Helvetica;fontSize=12;fontColor=#999999;gradientColor=none;recursiveResize=0;" parent="vxBBJPv8Y2YeqQfoSaYq-9" vertex="1">
          <mxGeometry x="240" y="410" width="440" height="40" as="geometry" />
        </mxCell>
        <mxCell id="vxBBJPv8Y2YeqQfoSaYq-4" value="&lt;p style=&quot;box-sizing: border-box; margin: 0px 0px 20px; line-height: 1.5em; color: rgb(24, 43, 70); font-family: &amp;quot;fira sans&amp;quot;, helvetica, arial, sans-serif; font-size: 12px;&quot;&gt;&lt;font style=&quot;font-size: 12px;&quot;&gt;Data and information held and owned by government: [is]&lt;/font&gt;&lt;span style=&quot;font-size: 12px;&quot;&gt;effectively belong to the New Zealand public,&amp;nbsp;&lt;/span&gt;&lt;span style=&quot;font-size: 12px;&quot;&gt;are a core strategic asset held by government as a steward on behalf of the public; and&amp;nbsp;&lt;/span&gt;&lt;span style=&quot;font-size: 12px;&quot;&gt;should only be collected or generated for specified public policy, operational business, or legislative purposes.&lt;/span&gt;&lt;/p&gt;" style="text;html=1;strokeColor=none;fillColor=none;align=left;verticalAlign=top;whiteSpace=wrap;rounded=0;fontFamily=Helvetica;fontSize=12;fontColor=#999999;gradientColor=none;recursiveResize=0;" parent="vxBBJPv8Y2YeqQfoSaYq-9" vertex="1">
          <mxGeometry x="240" y="460" width="440" height="80" as="geometry" />
        </mxCell>
        <mxCell id="vxBBJPv8Y2YeqQfoSaYq-5" value="&lt;span style=&quot;color: rgb(24, 43, 70); font-family: &amp;quot;fira sans&amp;quot;, helvetica, arial, sans-serif; font-size: 12px;&quot;&gt;&lt;font style=&quot;font-size: 12px;&quot;&gt;Use and re-use of government held data and information is expected to be free. Charging for access is discouraged.&lt;/font&gt;&lt;/span&gt;" style="text;html=1;strokeColor=none;fillColor=none;align=left;verticalAlign=top;whiteSpace=wrap;rounded=0;fontFamily=Helvetica;fontSize=12;fontColor=#999999;gradientColor=none;recursiveResize=0;" parent="vxBBJPv8Y2YeqQfoSaYq-9" vertex="1">
          <mxGeometry x="240" y="540" width="440" height="40" as="geometry" />
        </mxCell>
        <mxCell id="vxBBJPv8Y2YeqQfoSaYq-6" value="&lt;span style=&quot;color: rgb(24, 43, 70); font-family: &amp;quot;fira sans&amp;quot;, helvetica, arial, sans-serif; font-size: 12px;&quot;&gt;&lt;font style=&quot;font-size: 12px;&quot;&gt;Data and information released can be discovered, shared, used and re-used over time and through technology change. Copyright works are licensed for re-use and open access to and re-use of non-copyright materials is enabled, in accordance with the New Zealand Government Open Access and Licensing framework.&lt;/font&gt;&lt;/span&gt;" style="text;html=1;strokeColor=none;fillColor=none;align=left;verticalAlign=top;whiteSpace=wrap;rounded=0;fontFamily=Helvetica;fontSize=12;fontColor=#999999;gradientColor=none;recursiveResize=0;" parent="vxBBJPv8Y2YeqQfoSaYq-9" vertex="1">
          <mxGeometry x="240" y="580" width="440" height="40" as="geometry" />
        </mxCell>
        <mxCell id="msWVFrf8vx3zRPam6J4N-0" value="Source:&lt;br&gt;&lt;br&gt;&lt;a href=&quot;data:page/id,PDShuZ-yXdiyHlfbQ3Md&quot;&gt;https://www.data.govt.nz/manage-data/policies/new-zealand-data-and-information-management-principles/&lt;br&gt;&lt;span style=&quot;color: rgba(0 , 0 , 0 , 0) ; font-family: monospace ; font-size: 0px ; white-space: nowrap&quot;&gt;%3CmxGraphModel%3E%3Croot%3E%3CmxCell%20id%3D%220%22%2F%3E%3CmxCell%20id%3D%221%22%20parent%3D%220%22%2F%3E%3CUserObject%20label%3D%22NZ%20Data%20and%20Information%20Management%20Principles%22%20link%3D%22https%3A%2F%2Fwww.data.govt.nz%2Fmanage-data%2Fpolicies%2Fnew-zealand-data-and-information-management-principles%2F%22%20id%3D%222%22%3E%3CmxCell%20style%3D%22text%3Bhtml%3D1%3BstrokeColor%3Dnone%3BfillColor%3Dnone%3BwhiteSpace%3Dwrap%3Balign%3Dleft%3BverticalAlign%3Dmiddle%3BfontColor%3D%230000EE%3BfontStyle%3D4%3Bdashed%3D1%3Bopacity%3D20%3B%22%20vertex%3D%221%22%20parent%3D%221%22%3E%3CmxGeometry%20x%3D%22400%22%20y%3D%22650%22%20width%3D%22270%22%20height%3D%2240%22%20as%3D%22geometry%22%2F%3E%3C%2FmxCell%3E%3C%2FUserObject%3E%3C%2Froot%3E%3C%2FmxGraphModel%3E&lt;/span&gt;&lt;/a&gt;&lt;font color=&quot;rgba(0, 0, 0, 0)&quot; face=&quot;monospace&quot;&gt;&lt;span style=&quot;font-size: 0px ; white-space: nowrap&quot;&gt;&lt;a href=&quot;data:page/id,PDShuZ-yXdiyHlfbQ3Md&quot;&gt;https://www.data.govt.nz/manage-data/policies/new-zealand-data-and-information-management-principles/&lt;br&gt;&lt;/a&gt;&lt;br&gt;&lt;/span&gt;&lt;/font&gt;" style="shape=note;whiteSpace=wrap;html=1;size=14;verticalAlign=top;align=left;spacingTop=-6;" parent="vxBBJPv8Y2YeqQfoSaYq-9" vertex="1">
          <mxGeometry x="360" y="180" width="320" height="60" as="geometry" />
        </mxCell>
        <mxCell id="msWVFrf8vx3zRPam6J4N-1" value="Context/Legend" parent="9pa9Pr11mj6_5Fp1FYpv-0" />
        <mxCell id="8MBAd59rJ7gh_RbVFr4k-0" value="Title/Diagram" parent="9pa9Pr11mj6_5Fp1FYpv-0" />
        <mxCell id="8MBAd59rJ7gh_RbVFr4k-1" value="&lt;font style=&quot;font-size: 12px&quot;&gt;Diagram: System Context - Constraints - Agreements - Principles -&amp;nbsp;&amp;nbsp;&lt;br&gt;&lt;span style=&quot;font-size: 12px&quot;&gt;&amp;nbsp; &amp;nbsp; &amp;nbsp; &amp;nbsp; &amp;nbsp; &amp;nbsp; &amp;nbsp; &amp;nbsp; NZ Specific&amp;nbsp;&lt;/span&gt;Data and Information Management Principles&lt;/font&gt;" style="text;strokeColor=none;fillColor=none;html=1;fontSize=12;fontStyle=2;verticalAlign=middle;align=left;shadow=0;glass=0;comic=0;opacity=30;fontColor=#808080;" parent="8MBAd59rJ7gh_RbVFr4k-0" vertex="1">
          <mxGeometry x="120" y="660" width="520" height="40" as="geometry" />
        </mxCell>
      </root>
    </mxGraphModel>
  </diagram>
</mxfile>
